<?xml version="1.0" standalone="no"?>
<!DOCTYPE svg PUBLIC "-//W3C//DTD SVG 20010904//EN"
 "http://www.w3.org/TR/2001/REC-SVG-20010904/DTD/svg10.dtd">
<svg version="1.0" xmlns="http://www.w3.org/2000/svg"
 width="959.000000pt" height="959.000000pt" viewBox="0 0 959.000000 959.000000"
 preserveAspectRatio="xMidYMid meet">
<metadata>
Created by potrace 1.11, written by Peter Selinger 2001-2013
</metadata>
<g transform="translate(0.000000,959.000000) scale(0.100000,-0.100000)"
fill="#000000" stroke="none">
<path d="M371 8533 c0 -582 0 -1515 0 -2073 1 -1293 -1 -1662 -6 -1671 -3 -4
-7 -621 -10 -1371 -2 -749 -7 -1457 -11 -1573 -5 -191 -8 -211 -25 -223 -26
-18 -24 -31 6 -42 25 -9 25 -10 25 -132 0 -68 -5 -142 -10 -166 -13 -56 -36
-237 -50 -390 -15 -165 -17 -170 -77 -174 -40 -3 -48 -6 -48 -23 0 -15 8 -21
33 -23 44 -4 64 -37 60 -99 l-3 -48 -50 0 c-27 1 -85 4 -128 9 l-77 8 0 -44
c0 -38 4 -47 25 -56 33 -15 33 -42 0 -42 -41 0 -29 -25 18 -36 52 -11 60 -40
10 -37 -17 2 -35 -2 -38 -7 -3 -6 5 -10 19 -10 13 0 36 -4 50 -10 25 -9 26
-13 26 -86 l0 -77 -55 7 c-72 8 -71 -8 3 -25 45 -11 57 -18 57 -33 0 -18 -6
-20 -59 -17 -78 3 -65 -12 25 -29 39 -8 77 -20 84 -27 11 -11 657 -13 3674
-13 3240 0 3661 2 3675 15 8 8 29 15 46 15 34 0 65 23 65 49 0 12 11 16 50 16
40 0 49 -3 47 -16 -2 -14 15 -17 110 -22 81 -4 135 -13 191 -32 76 -24 84 -25
367 -25 l290 0 0 25 c0 28 12 32 30 10 9 -10 9 -15 1 -15 -6 0 -11 -4 -11 -10
0 -6 45 -10 115 -10 70 0 115 4 115 10 0 6 -9 10 -20 10 -11 0 -20 7 -20 15 0
18 23 19 51 4 12 -6 18 -17 15 -25 -4 -12 17 -14 129 -14 87 0 135 4 135 10 0
12 41 73 53 78 4 2 7 9 7 16 0 7 9 21 19 30 11 10 23 31 26 47 4 16 10 31 15
34 14 9 170 316 170 335 0 6 18 10 40 10 l40 0 0 60 0 60 -35 0 c-62 0 -190
22 -206 36 -17 15 -39 2 -39 -24 0 -16 -101 -209 -140 -267 -15 -22 -44 -71
-65 -110 -21 -38 -52 -93 -69 -121 -17 -27 -36 -59 -42 -70 -15 -25 -107 -38
-144 -20 -34 18 -107 28 -114 17 -3 -5 4 -11 16 -14 12 -4 20 -8 17 -11 -10
-10 -49 6 -49 20 0 8 -9 14 -20 14 -10 0 -31 5 -45 12 -23 10 -28 10 -36 -5
-13 -22 -49 -22 -49 -1 0 14 3 14 15 4 9 -8 15 -9 15 -2 0 15 -9 19 -53 27
-37 7 -38 7 -31 -19 5 -23 4 -26 -17 -23 -15 3 -24 11 -24 22 0 30 -31 42 -54
21 -18 -16 -19 -16 -23 0 -4 21 -93 53 -163 59 -27 2 -68 12 -90 23 -22 10
-62 25 -90 32 -27 8 -66 25 -85 38 -29 21 -31 24 -10 18 14 -4 39 -9 55 -11
17 -2 68 -13 115 -24 109 -27 390 -90 599 -136 90 -20 166 -33 169 -30 11 10
79 126 113 190 17 33 39 71 49 85 9 14 28 45 42 70 53 96 70 125 78 135 4 6
22 36 39 68 26 47 29 58 17 63 -8 3 -20 3 -26 -1 -6 -4 -17 -1 -25 5 -16 13
-65 6 -65 -10 0 -6 4 -10 9 -10 5 0 12 -11 15 -25 4 -14 13 -25 21 -25 18 0
18 -1 0 -36 -11 -21 -15 -24 -15 -11 0 10 -5 15 -10 12 -6 -4 -8 -15 -5 -25 8
-24 -11 -60 -30 -60 -7 0 -17 -5 -21 -12 -5 -8 -2 -9 10 -5 14 6 15 4 5 -14
-32 -61 -86 -138 -92 -132 -4 3 -7 -3 -7 -14 0 -12 -8 -23 -20 -26 -11 -3 -20
-10 -20 -17 0 -6 4 -9 10 -5 15 9 -8 -46 -38 -89 -17 -25 -36 -41 -52 -43 -14
-1 -44 -5 -67 -9 -53 -8 -66 13 -36 54 10 15 26 43 35 62 9 19 25 44 35 55 22
24 103 160 103 173 0 5 9 17 20 27 11 10 20 23 20 29 0 7 10 24 22 39 25 31
51 87 40 87 -11 0 -62 -68 -62 -83 0 -8 -9 -22 -20 -32 -11 -10 -20 -23 -20
-29 0 -5 -42 -73 -93 -151 -52 -77 -104 -157 -117 -178 -27 -46 -20 -46 -215
7 -49 14 -151 39 -225 57 -74 18 -139 36 -144 40 -6 5 -3 16 7 27 9 10 17 24
17 30 0 7 5 12 10 12 6 0 10 7 10 15 0 7 6 18 13 22 22 13 67 79 67 96 0 10 7
17 15 17 8 0 15 6 15 13 0 7 8 20 18 29 9 8 32 34 51 57 19 22 41 41 49 41 8
0 21 8 29 18 13 15 14 14 8 -13 -8 -35 -16 -45 -22 -27 -8 20 -26 14 -20 -8 3
-10 1 -20 -4 -22 -5 -2 -10 -13 -12 -26 -2 -13 -8 -27 -13 -30 -5 -4 -18 -24
-29 -45 -11 -21 -30 -50 -43 -64 -25 -29 -24 -46 1 -51 10 -2 23 11 36 35 10
21 28 47 39 59 11 11 32 40 47 65 15 24 41 59 56 77 16 18 29 40 29 48 0 8 5
12 11 9 19 -12 59 4 59 24 0 11 -6 21 -12 24 -38 14 285 -3 347 -19 22 -6 26
-11 21 -33 -5 -25 -5 -25 6 -3 10 19 19 22 77 22 117 0 34 31 -164 60 -108 16
-217 47 -172 49 9 1 17 6 17 12 0 5 6 7 12 3 7 -5 80 -9 163 -9 143 -1 326
-20 444 -46 52 -11 144 -8 219 7 30 6 32 9 32 53 0 47 0 47 -43 58 -24 7 -128
24 -233 38 -104 14 -200 30 -214 34 -45 16 145 0 443 -35 l47 -6 0 31 c0 24
-5 32 -23 35 -22 5 -267 37 -432 57 -121 15 -135 18 -135 30 0 11 97 6 315
-17 77 -9 170 -18 208 -21 67 -6 67 -6 67 20 0 25 0 25 -117 32 -65 4 -135 14
-157 21 -21 8 -58 14 -81 14 -63 0 -363 40 -570 75 -44 8 -105 17 -135 20 -30
3 -73 9 -95 12 l-40 6 30 7 c45 10 161 0 144 -12 -10 -7 -3 -8 21 -5 44 6 222
-6 410 -27 80 -8 222 -23 315 -32 94 -9 194 -18 223 -21 50 -5 52 -5 52 20 0
30 -4 31 -165 47 -60 6 -195 19 -300 30 -104 11 -237 25 -295 30 -58 6 -136
15 -175 20 -38 6 -149 19 -245 30 -225 25 -260 31 -238 39 15 5 81 2 288 -13
25 -2 96 -7 158 -11 l112 -8 0 23 c0 13 7 32 16 42 14 15 15 20 4 33 -7 9 -18
14 -24 12 -7 -3 -11 6 -10 22 1 31 -21 68 -44 75 -9 2 19 3 63 1 44 -2 107 -4
140 -4 33 -1 147 -6 253 -13 186 -11 194 -12 223 -37 24 -21 30 -35 33 -79 2
-29 9 -59 16 -67 6 -8 9 -18 6 -23 -2 -4 6 -21 20 -38 l25 -29 -6 45 c-3 25
-11 83 -16 130 -13 118 -12 117 -62 118 -23 1 -96 6 -162 11 -66 6 -187 15
-270 22 -176 13 -324 35 -260 39 53 3 95 15 75 22 -20 7 -132 26 -200 33 -106
11 -147 38 -105 69 13 9 10 16 -16 44 -17 18 -28 36 -25 39 9 10 317 2 471
-12 33 -3 101 -8 150 -11 50 -2 151 -9 225 -15 74 -5 181 -12 238 -16 l102 -6
0 3892 0 3891 -4425 0 -4425 0 -1 -1757 c-2 -3469 -4 -3876 -20 -3901 -7 -12
-17 -22 -20 -22 -15 0 -20 1094 -15 3308 l6 2372 -25 0 -25 0 0 -212 c-1 -908
3 -2124 11 -3403 2 -334 -13 -1904 -20 -2096 -6 -138 -13 -213 -22 -230 l-13
-24 -7 35 c-5 19 -8 247 -7 505 0 259 -4 1107 -8 1885 -5 778 -8 1492 -7 1585
1 94 1 379 0 635 -1 256 -1 499 0 540 0 41 1 127 2 190 1 63 2 222 2 353 l-1
237 -25 0 -24 0 2 -3092 c2 -3329 5 -3089 -39 -3250 -3 -9 -11 -18 -18 -21
-11 -4 -12 3 -5 34 6 24 5 75 0 127 -6 48 -10 130 -10 182 -1 52 -4 167 -9
255 -4 88 -4 165 0 171 4 6 5 154 3 330 -12 801 -14 1904 -4 1904 6 0 7 5 4
10 -11 17 -17 614 -14 1355 2 575 2 1615 0 1918 l-1 77 -29 0 -30 0 0 -1057z
m446 -55 c-3 -7 -5 -2 -5 12 0 14 2 19 5 13 2 -7 2 -19 0 -25z m1723 -1315 c0
-13 19 -41 42 -65 42 -42 88 -133 88 -174 0 -11 -15 -35 -34 -53 -28 -28 -34
-30 -40 -16 -5 14 -9 15 -20 6 -11 -9 -26 -4 -70 24 -30 19 -60 44 -66 54 -13
25 -13 74 0 66 12 -8 13 18 1 31 -5 5 -12 24 -16 42 l-7 32 31 -27 c81 -72
111 -105 111 -123 0 -10 9 -25 19 -32 10 -8 21 -25 24 -38 3 -19 5 -17 6 10 1
45 -19 109 -58 184 -18 35 -31 75 -31 95 0 27 3 32 10 21 5 -8 10 -25 10 -37z
m-133 15 c-3 -8 -6 -5 -6 6 -1 11 2 17 5 13 3 -3 4 -12 1 -19z m386 -245 c3
-100 2 -113 -13 -113 -23 0 -59 41 -70 81 -10 35 6 149 22 149 4 0 5 -14 1
-32 -8 -39 12 -31 22 9 7 30 29 50 32 30 1 -6 4 -63 6 -124z m63 10 c-11 -11
-17 4 -9 23 7 18 8 18 11 1 2 -10 1 -21 -2 -24z m140 -8 c6 -14 8 -14 19 1 15
22 21 9 30 -72 6 -58 6 -59 -12 -36 l-18 22 -18 -30 c-10 -16 -22 -30 -26 -30
-10 0 -21 61 -20 105 0 26 2 27 9 10 7 -17 9 -15 9 13 1 33 17 43 27 17z
m2119 -32 c30 -34 32 -82 5 -114 -10 -13 -20 -22 -20 -19 -1 3 -3 21 -5 40 -2
19 -6 54 -10 78 -8 49 -3 52 30 15z m-2283 -5 c-7 -7 -12 -8 -12 -2 0 14 12
26 19 19 2 -3 -1 -11 -7 -17z m2048 2 c0 -5 -7 -10 -15 -10 -8 0 -15 5 -15 10
0 6 7 10 15 10 8 0 15 -4 15 -10z m170 -41 c7 -11 9 -27 6 -35 -6 -16 -43 -19
-65 -5 -11 7 -9 10 9 16 l22 7 -26 27 c-15 15 -23 30 -20 34 10 10 62 -21 74
-44z m-2216 -4 c3 -8 1 -15 -4 -15 -6 0 -10 7 -10 15 0 8 2 15 4 15 2 0 6 -7
10 -15z m36 -17 c0 -25 -3 -29 -10 -18 -13 20 -13 50 0 50 6 0 10 -15 10 -32z
m1750 12 c0 -11 -4 -20 -10 -20 -5 0 -10 9 -10 20 0 11 5 20 10 20 6 0 10 -9
10 -20z m949 -28 c0 -30 -2 -33 -9 -17 -12 28 -12 67 0 60 6 -3 10 -23 9 -43z
m-881 26 c-2 -6 -13 -16 -24 -22 -10 -6 -22 -15 -26 -21 -4 -5 -8 5 -8 23 0
29 3 32 31 32 19 0 29 -4 27 -12z m752 -17 c0 -10 -9 -21 -20 -24 -21 -5 -24
1 -14 27 9 22 34 20 34 -3z m-206 -36 c8 -50 24 -68 33 -35 4 16 8 18 14 8 11
-16 12 -57 1 -43 -4 6 -18 11 -31 13 -14 1 -30 7 -38 13 -13 12 -18 70 -6 82
14 15 21 5 27 -38z m-594 -15 c0 -5 -4 -10 -9 -10 -6 0 -13 5 -16 10 -3 6 1
10 9 10 9 0 16 -4 16 -10z m790 -1 c0 7 5 9 10 6 16 -10 12 -42 -6 -49 -28
-11 -34 -6 -34 25 0 27 2 30 15 19 11 -9 15 -9 15 -1z m-710 -18 c0 -10 -8
-21 -17 -25 -10 -3 -26 -11 -35 -18 -20 -15 -27 -10 -30 22 -3 25 -3 25 75 39
4 0 7 -7 7 -18z m285 -201 c3 -5 1 -10 -4 -10 -6 0 -11 5 -11 10 0 6 2 10 4
10 3 0 8 -4 11 -10z m-320 -30 c-6 -9 -9 -9 -16 1 -10 17 0 34 13 21 6 -6 7
-16 3 -22z m-118 -2 c-3 -8 -6 -5 -6 6 -1 11 2 17 5 13 3 -3 4 -12 1 -19z
m1220 16 c-3 -3 -12 -4 -19 -1 -8 3 -5 6 6 6 11 1 17 -2 13 -5z m-3276 -83
c-6 -11 -11 -36 -11 -55 0 -20 -4 -36 -10 -36 -17 0 -11 89 7 117 14 21 19 23
21 11 2 -10 -2 -26 -7 -37z m2104 39 c3 -5 1 -10 -4 -10 -6 0 -11 5 -11 10 0
6 2 10 4 10 3 0 8 -4 11 -10z m2071 -35 c5 -29 9 -33 20 -24 12 9 14 4 14 -30
0 -37 2 -41 25 -41 31 0 41 -21 25 -50 -10 -18 -9 -24 1 -31 8 -5 19 -7 26 -4
6 2 14 -1 16 -8 7 -21 -14 -66 -34 -72 -25 -8 -24 -22 1 -30 27 -9 27 -45 0
-45 -20 0 -20 -1 -3 -26 l17 -27 9 32 c4 18 16 34 25 37 9 3 25 10 35 15 11 6
17 6 17 -1 0 -5 -4 -10 -10 -10 -17 0 0 -26 18 -27 14 -1 76 -8 105 -12 15 -2
6 -30 -10 -34 -10 -2 -2 -2 17 0 19 3 38 10 42 16 4 7 15 5 32 -6 39 -26 46
-21 46 31 l0 47 40 0 c31 0 40 -3 40 -17 0 -9 8 -22 18 -27 16 -10 16 -10 0
-11 -13 0 -18 -8 -18 -30 l0 -30 -80 0 c-47 0 -80 -4 -80 -10 0 -5 18 -10 40
-10 29 0 40 -4 40 -15 0 -10 -10 -15 -34 -15 -43 0 -66 -9 -66 -25 0 -7 -7
-18 -15 -25 -9 -7 -15 -20 -14 -29 3 -35 -2 -51 -16 -51 -8 0 -15 -9 -15 -20
0 -15 7 -20 25 -20 14 0 25 5 25 10 0 14 28 12 33 -2 3 -10 7 -10 18 -1 15 12
73 12 85 0 4 -4 3 -7 -3 -7 -13 0 -83 -60 -83 -72 0 -4 11 -8 25 -8 22 0 25
-4 25 -37 0 -31 5 -40 27 -50 35 -17 51 -16 69 1 10 11 11 17 3 22 -16 10 31
35 54 28 11 -4 17 0 17 11 0 11 -5 15 -15 11 -19 -7 -47 3 -39 15 3 5 16 6 30
3 25 -7 32 4 13 23 -8 8 -7 17 5 34 16 23 16 23 16 -19 0 -23 5 -42 10 -42 6
0 10 -7 10 -15 0 -11 7 -14 25 -9 15 4 25 2 25 -5 0 -6 4 -11 9 -11 6 0 11 17
13 37 3 41 26 57 35 24 3 -12 13 -21 25 -21 13 0 18 5 15 14 -9 22 31 66 59
66 21 0 24 4 24 40 0 39 -1 40 -36 40 l-37 0 6 66 c5 65 27 116 27 63 0 -13 5
-31 10 -39 8 -13 10 -12 10 3 0 20 1 21 36 5 22 -10 28 -10 39 5 14 19 40 14
49 -9 3 -8 12 -14 21 -14 8 0 15 -9 15 -19 0 -10 7 -21 15 -25 8 -3 15 -12 15
-21 0 -18 21 -20 38 -3 9 9 12 7 12 -10 0 -19 -5 -22 -39 -22 -22 0 -42 5 -44
13 -3 6 -5 -13 -5 -43 0 -30 2 -49 5 -42 2 6 15 12 29 12 28 0 23 -26 -7 -35
-13 -4 -19 -16 -19 -36 0 -22 -5 -29 -19 -29 -10 0 -46 -3 -80 -6 -57 -6 -61
-6 -61 14 0 15 -5 20 -15 16 -16 -7 -22 -84 -6 -84 5 0 11 -23 13 -52 3 -29
11 -54 17 -56 6 -2 11 -15 11 -28 0 -17 -6 -24 -20 -24 -13 0 -20 -7 -20 -20
0 -11 5 -20 10 -20 6 0 10 -9 10 -20 0 -26 -14 -25 -45 2 -25 21 -34 58 -15
58 6 0 10 18 10 40 0 54 -25 54 -34 1 -3 -22 -11 -41 -17 -43 -14 -5 21 -77
38 -78 50 -1 84 -52 43 -65 -16 -5 -20 -15 -20 -51 0 -24 -4 -44 -10 -44 -5 0
-10 18 -10 40 0 22 -4 40 -10 40 -5 0 -10 -17 -10 -39 0 -62 -51 -84 -76 -32
-12 23 -12 23 -23 3 -6 -11 -11 -37 -11 -56 0 -35 -1 -36 -37 -36 -29 0 -34 3
-23 10 13 9 12 12 -5 26 -11 8 -30 13 -42 11 -13 -2 -23 1 -23 7 0 7 10 12 23
11 12 0 22 5 22 10 0 6 -16 9 -35 7 -19 -1 -45 3 -58 10 -17 9 -25 9 -34 0 -7
-7 -20 -12 -30 -12 -16 0 -16 3 -6 20 14 22 6 35 -17 26 -21 -8 -31 -36 -15
-46 23 -14 -7 -20 -34 -6 -25 13 -26 15 -11 30 9 9 21 16 26 16 5 0 9 9 9 20
0 11 -7 20 -15 20 -9 0 -15 9 -15 24 0 14 -4 27 -8 30 -10 6 -52 -30 -52 -44
0 -6 -5 -10 -11 -10 -11 0 -8 25 7 64 4 10 1 16 -9 16 -8 0 -17 -7 -21 -15 -3
-8 -10 -15 -16 -15 -14 0 -13 27 2 32 6 2 8 10 4 16 -14 22 -26 12 -26 -22 0
-37 -12 -51 -52 -61 -24 -6 -26 -10 -17 -27 8 -14 8 -23 0 -31 -8 -8 -11 -4
-11 16 0 18 -5 27 -16 27 -11 0 -14 6 -9 23 4 12 11 26 16 32 5 5 9 22 9 37 0
37 -34 38 -52 2 -8 -16 -28 -32 -53 -40 -53 -18 -55 -18 -55 10 0 17 -7 26
-26 30 -19 5 -24 11 -19 26 4 13 0 20 -15 25 -11 3 -20 13 -20 21 0 25 -34 11
-48 -19 -8 -16 -20 -31 -28 -34 -8 -3 -14 -11 -14 -18 0 -7 -5 -15 -12 -17 -8
-3 -2 -13 15 -28 33 -29 35 -50 4 -50 -12 0 -30 -9 -40 -20 -22 -26 -35 -25
-40 3 -2 12 -5 3 -6 -20 0 -27 -6 -43 -13 -43 -7 0 -5 -5 5 -11 21 -12 22 -29
2 -29 -8 0 -15 -5 -15 -10 0 -6 7 -13 15 -16 8 -4 15 -11 15 -16 0 -15 43 -47
64 -48 13 0 17 -5 14 -18 -4 -15 -1 -18 17 -14 21 3 23 -1 26 -42 4 -41 2 -45
-14 -40 -17 5 -16 3 3 -16 12 -12 19 -24 17 -27 -3 -3 -59 42 -125 99 -66 58
-140 120 -165 138 -38 27 -45 37 -42 59 2 14 7 52 10 84 3 39 12 65 25 80 24
25 61 103 97 204 14 40 31 73 39 73 25 0 54 51 54 94 0 23 4 46 9 52 30 31 52
93 62 176 9 80 15 97 39 123 15 17 36 41 46 54 11 14 43 48 73 76 l53 51 -16
33 c-10 17 -24 35 -32 38 -16 6 -20 43 -4 43 6 0 10 9 10 20 0 33 19 22 26
-15z m-4256 -99 c0 -12 3 -32 7 -45 5 -19 2 -22 -13 -19 -21 4 -36 59 -27 97
6 23 7 23 19 6 8 -11 14 -28 14 -39z m2365 24 c7 0 15 -10 18 -22 7 -24 -10
-51 -25 -42 -15 10 -28 52 -21 71 4 11 8 12 11 5 2 -7 10 -12 17 -12z m-2404
-143 c16 -45 28 -95 29 -112 0 -16 9 -43 20 -60 l20 -30 0 37 c0 43 15 57 38
35 11 -12 15 -33 14 -73 -2 -61 9 -89 42 -116 28 -23 46 -22 46 2 0 11 2 20 5
20 3 0 48 -42 100 -93 77 -75 95 -99 95 -123 1 -31 16 -57 40 -66 8 -3 24 -29
34 -58 20 -56 60 -108 70 -91 4 6 19 3 39 -9 18 -11 38 -23 46 -27 7 -3 36
-21 63 -40 28 -18 59 -33 70 -33 10 0 34 -12 53 -27 32 -25 33 -29 18 -45 -15
-17 -15 -18 3 -18 10 1 30 7 44 15 34 19 40 18 40 -4 0 -11 5 -23 10 -26 11
-7 9 -42 -3 -62 -5 -7 0 -20 11 -31 15 -15 40 -20 133 -25 127 -7 159 -13 159
-32 0 -19 -29 -23 -225 -30 -205 -8 -373 -31 -490 -69 -44 -14 -83 -22 -86
-18 -8 8 -16 77 -29 278 -11 168 -19 237 -29 250 -3 5 -27 19 -53 31 -42 20
-52 31 -78 87 -18 38 -46 77 -68 95 -71 59 -80 70 -128 148 -27 43 -57 87 -67
98 -45 49 -73 155 -62 236 6 46 30 87 43 74 3 -3 18 -42 33 -88z m2483 64 c8
-9 24 -52 35 -96 26 -100 52 -156 69 -150 7 3 11 1 8 -3 -3 -5 8 -21 25 -36
l29 -28 9 23 c8 23 8 23 26 -11 10 -18 42 -58 71 -88 30 -29 54 -61 54 -71 0
-19 46 -87 58 -85 4 1 18 -21 32 -49 14 -28 34 -56 45 -61 11 -6 24 -16 28
-23 4 -7 46 -31 92 -54 47 -23 85 -48 85 -55 0 -20 39 -37 72 -30 20 4 30 1
34 -9 4 -9 19 -15 40 -15 35 0 39 -6 46 -70 3 -23 8 -25 98 -38 52 -7 99 -17
103 -22 5 -4 -35 -11 -90 -14 -197 -12 -350 -27 -433 -42 -88 -17 -240 -70
-240 -85 0 -5 -5 -9 -11 -9 -6 0 -33 -20 -61 -44 -27 -25 -55 -43 -63 -40 -8
3 -16 -4 -20 -18 -9 -28 -86 -104 -115 -113 -12 -4 -19 -13 -16 -20 3 -9 -2
-11 -16 -7 -11 2 -23 -1 -28 -7 -5 -9 -19 -10 -48 -4 -33 6 -40 11 -32 23 8
12 13 13 30 3 32 -21 40 -15 40 27 0 33 3 40 20 40 24 0 26 22 5 40 -12 10
-18 10 -30 0 -8 -7 -15 -19 -15 -26 0 -8 -10 -14 -22 -14 -21 1 -22 2 -5 14
23 18 22 36 -4 36 -15 0 -20 5 -17 23 2 16 13 24 41 31 40 10 45 17 23 35 -31
26 22 101 72 101 24 1 25 2 8 11 -25 15 -4 29 46 29 48 0 71 32 37 51 -17 9
-23 8 -30 -2 -4 -7 -11 -10 -15 -6 -4 3 -1 13 6 22 10 12 10 18 0 30 -7 9 -10
18 -7 22 4 3 2 14 -4 24 -7 15 -6 21 5 25 8 3 16 14 19 25 3 10 1 17 -4 13 -5
-3 -9 8 -9 25 0 16 5 33 10 36 6 4 8 11 5 16 -4 5 1 9 9 9 24 0 30 21 7 27
-27 7 -27 17 2 31 12 6 16 11 9 11 -10 1 -10 6 2 23 22 32 20 37 -14 35 -21
-1 -29 -6 -25 -16 6 -16 -14 -43 -26 -35 -5 3 -9 19 -9 35 0 24 -4 30 -17 27
-11 -2 -17 -12 -16 -23 2 -18 -3 -20 -43 -17 -39 4 -44 7 -44 28 0 20 -5 24
-30 24 -23 0 -30 5 -30 19 0 10 -7 24 -15 31 -13 11 -18 10 -30 -6 -13 -17
-16 -17 -27 -4 -7 9 -24 21 -38 27 -18 9 -20 12 -7 12 13 1 17 10 17 39 0 34
3 39 43 56 l42 19 -30 13 c-16 7 -36 13 -42 14 -18 0 -16 20 1 20 8 0 17 11
20 25 6 25 29 34 41 15 9 -15 35 -12 35 4 0 8 -7 21 -15 30 -8 8 -15 19 -15
25 0 6 -8 11 -18 11 -10 0 -27 7 -38 15 -18 14 -18 15 14 27 17 7 32 17 32 24
0 14 46 64 60 64 13 0 12 10 -5 40 -8 14 -14 28 -15 33 0 15 23 6 42 -15 l20
-23 -2 25 c-3 35 -3 35 24 36 14 1 32 -6 40 -15z m1986 -47 c0 -8 -5 -12 -10
-9 -6 4 -8 11 -5 16 9 14 15 11 15 -7z m195 -24 c3 -5 1 -10 -4 -10 -6 0 -11
5 -11 10 0 6 2 10 4 10 3 0 8 -4 11 -10z m-2581 -109 c2 -31 1 -39 -1 -18 -2
20 -8 37 -14 37 -5 0 -9 19 -8 43 0 37 1 39 10 18 5 -14 11 -50 13 -80z m2498
47 c-9 -9 -12 -7 -12 12 0 19 3 21 12 12 9 -9 9 -15 0 -24z m-1986 -19 c12
-25 14 -37 5 -56 -6 -13 -16 -21 -21 -18 -10 6 -15 105 -5 105 2 0 12 -14 21
-31z m-312 6 c3 -8 1 -15 -4 -15 -6 0 -10 7 -10 15 0 8 2 15 4 15 2 0 6 -7 10
-15z m-209 -96 c5 -20 10 -27 15 -19 5 8 9 7 14 -5 3 -10 1 -24 -5 -31 -6 -7
-9 -36 -7 -64 1 -27 0 -50 -4 -50 -5 0 -8 28 -8 63 -1 39 -6 69 -15 81 -17 22
-20 56 -6 56 5 0 13 -14 16 -31z m-35 -1 c0 -18 -2 -20 -9 -8 -6 8 -7 18 -5
22 9 14 14 9 14 -14z m2815 11 c10 -14 1 -21 -19 -13 -9 3 -13 10 -10 15 7 12
21 11 29 -2z m205 -3 c0 -11 -19 -15 -25 -6 -3 5 1 10 9 10 9 0 16 -2 16 -4z
m150 -16 c0 -5 -4 -10 -10 -10 -5 0 -10 5 -10 10 0 6 5 10 10 10 6 0 10 -4 10
-10z m-3054 -46 c-4 -13 -3 -24 1 -24 5 0 13 -17 20 -37 10 -33 9 -39 -8 -51
-24 -17 -24 -40 0 -66 27 -30 38 -86 17 -86 -11 0 -16 9 -16 26 0 30 -19 28
-31 -4 -7 -17 -5 -22 8 -22 13 0 14 -3 5 -12 -16 -16 -15 -43 3 -58 12 -10 15
-10 15 4 0 9 6 16 14 16 7 0 19 7 26 15 7 8 19 15 26 15 20 0 17 -30 -3 -46
-17 -13 -17 -13 0 -14 9 0 17 -4 17 -10 0 -5 18 -10 40 -10 22 0 40 5 40 10 0
6 5 10 11 10 8 0 8 -5 -1 -15 -7 -9 -29 -15 -51 -15 -32 0 -39 -4 -39 -19 0
-16 8 -21 43 -24 23 -2 5 -4 -40 -5 -51 -1 -83 -6 -83 -13 0 -5 -5 -7 -12 -3
-9 6 -9 9 0 12 7 2 12 12 12 23 0 16 -3 18 -19 9 -30 -15 -71 39 -71 93 0 26
3 37 9 29 6 -10 10 -10 20 1 20 24 29 117 21 202 -5 51 -4 84 2 92 15 19 30 4
24 -23z m-127 19 c0 -5 -4 -17 -9 -28 -8 -18 -9 -17 -9 8 -1 15 4 27 9 27 6 0
10 -3 9 -7z m2962 -27 c-11 -13 4 -56 20 -56 6 0 13 9 16 20 3 11 10 20 15 20
6 0 8 7 4 15 -3 8 -2 15 3 15 11 0 21 -36 21 -77 0 -25 -4 -33 -17 -33 -10 0
-29 -9 -43 -20 -24 -20 -25 -21 -6 -35 23 -18 16 -29 -13 -20 -14 4 -21 15
-21 32 0 23 -3 25 -44 22 -32 -3 -42 -1 -39 9 3 6 12 12 19 12 8 0 17 7 20 15
3 8 14 17 25 20 14 5 19 16 19 45 0 31 3 38 15 34 10 -4 12 -10 6 -18z m-261
-61 c0 -11 11 -15 39 -15 33 0 39 -3 44 -25 4 -25 4 -25 -20 -10 -20 14 -27
14 -40 3 -13 -10 -17 -10 -20 0 -5 14 -33 17 -33 3 0 -17 -28 -19 -48 -3 -16
13 -18 20 -9 39 8 18 18 23 49 23 27 0 38 -4 38 -15z m-2686 -12 c7 -18 -22
-56 -35 -47 -19 11 -8 -14 16 -36 29 -28 37 -100 10 -100 -10 0 -15 -11 -15
-35 0 -19 -8 -54 -17 -77 -12 -30 -13 -43 -5 -46 7 -2 12 -15 12 -30 0 -14 7
-33 15 -42 9 -10 13 -25 9 -34 -9 -22 -24 -20 -24 4 0 11 -5 20 -11 20 -7 0
-8 -7 -4 -17 4 -10 10 -28 12 -40 3 -13 11 -23 18 -23 23 0 27 -31 5 -37 -23
-6 -27 -43 -5 -43 8 0 15 -4 15 -10 0 -14 -28 -12 -33 3 -10 28 -18 -4 -9 -37
10 -34 9 -36 -15 -36 -23 0 -24 3 -18 33 4 17 11 36 16 41 5 6 9 26 9 45 0 41
-14 69 -24 52 -9 -14 -59 -14 -73 0 -8 8 -13 8 -17 0 -4 -6 0 -11 8 -11 12 0
16 -10 16 -40 0 -22 -4 -40 -10 -40 -5 0 -10 -8 -10 -18 0 -11 -9 -27 -20 -37
-11 -10 -17 -22 -14 -26 3 -5 -4 -21 -15 -35 -26 -33 -26 -44 -1 -44 11 0 20
7 20 15 0 8 4 15 9 15 10 0 41 56 41 72 0 6 8 20 18 33 l19 24 10 -45 c8 -34
7 -46 -3 -55 -11 -9 -14 -8 -14 5 0 9 -7 16 -15 16 -10 0 -17 -14 -21 -40 -4
-22 -10 -40 -15 -40 -5 0 -9 -18 -9 -40 0 -22 -4 -40 -10 -40 -5 0 -10 4 -10
10 0 5 -13 7 -28 4 -19 -4 -34 0 -45 10 -14 14 -15 9 -11 -62 5 -68 4 -75 -9
-59 -15 18 -37 23 -37 8 0 -6 5 -13 10 -16 21 -13 9 -25 -12 -13 -13 7 -25 13
-28 13 -3 0 -15 6 -28 13 -18 10 -20 17 -12 32 5 10 10 43 10 72 1 86 15 130
60 176 22 24 40 49 40 56 0 8 6 19 13 25 8 6 22 39 32 73 48 167 78 242 111
275 29 29 34 41 34 81 0 35 7 57 23 80 13 17 27 28 32 24 4 -4 5 2 1 13 -4 16
-1 21 13 22 11 1 22 -5 25 -14z m2766 -93 c0 -5 -7 -10 -16 -10 -8 0 -12 5 -9
10 3 6 10 10 16 10 5 0 9 -4 9 -10z m50 -10 c0 -5 -4 -10 -10 -10 -5 0 -10 5
-10 10 0 6 5 10 10 10 6 0 10 -4 10 -10z m-38 -52 c-9 -9 -12 -7 -12 12 0 19
3 21 12 12 9 -9 9 -15 0 -24z m488 -112 c0 -8 -7 -19 -15 -26 -20 -17 -32 13
-13 33 15 17 28 13 28 -7z m-3246 -11 c-4 -8 -10 -15 -15 -15 -5 0 -9 7 -9 15
0 8 7 15 15 15 9 0 12 -6 9 -15z m3146 -3 c0 -10 4 -22 9 -27 6 -6 6 -33 2
-65 -6 -38 -9 -45 -10 -22 -1 26 -5 32 -23 32 -37 1 -58 24 -58 64 0 35 1 36
40 36 32 0 40 -4 40 -18z m-3180 -42 c0 -11 -4 -20 -10 -20 -5 0 -10 9 -10 20
0 11 5 20 10 20 6 0 10 -9 10 -20z m3240 -60 c0 -22 -4 -40 -10 -40 -5 0 -10
18 -10 40 0 22 5 40 10 40 6 0 10 -18 10 -40z m-780 -210 c0 -5 -4 -10 -10
-10 -5 0 -10 5 -10 10 0 6 5 10 10 10 6 0 10 -4 10 -10z m-2470 -141 c0 -5
-10 -9 -21 -9 -18 0 -19 2 -9 15 12 15 30 12 30 -6z m3013 5 c8 -8 -3 -34 -15
-34 -14 0 -38 27 -31 34 8 8 38 8 46 0z m-3023 -49 c0 -11 -11 -15 -40 -15
-29 0 -40 4 -40 15 0 11 11 15 40 15 29 0 40 -4 40 -15z m320 -85 c0 -5 -4
-10 -10 -10 -5 0 -10 5 -10 10 0 6 5 10 10 10 6 0 10 -4 10 -10z m2050 -40 c0
-5 -4 -10 -10 -10 -5 0 -10 5 -10 10 0 6 5 10 10 10 6 0 10 -4 10 -10z m-152
-43 c2 -10 -3 -17 -12 -17 -10 0 -16 9 -16 21 0 24 23 21 28 -4z m-2427 -28
c5 -11 18 -19 27 -19 10 0 23 -5 30 -12 15 -15 16 -48 2 -48 -5 0 -10 5 -10
10 0 6 -18 18 -40 27 -22 10 -40 23 -40 30 0 6 -3 19 -6 27 -9 23 23 9 37 -15z
m2503 -14 c10 -3 17 -8 14 -10 -7 -8 -68 16 -68 26 0 5 7 5 18 0 9 -5 26 -12
36 -16z m-1954 -45 c0 -5 -4 -10 -10 -10 -5 0 -10 5 -10 10 0 6 5 10 10 10 6
0 10 -4 10 -10z m-421 -56 c2 -2 -8 -4 -22 -4 -18 0 -27 5 -27 15 0 13 4 14
23 4 12 -6 24 -13 26 -15z m315 -9 c-27 -20 -64 -19 -65 3 -1 16 -2 16 -6 0
-5 -21 -43 -24 -43 -4 0 10 16 17 48 21 26 3 54 7 62 8 23 4 25 -12 4 -28z
m-157 -41 c-3 -3 -12 -4 -19 -1 -8 3 -5 6 6 6 11 1 17 -2 13 -5z m2068 -3214
c14 -7 8 -8 -20 -3 -22 3 -42 7 -44 9 -9 8 45 2 64 -6z m453 -47 c-10 -2 -28
-2 -40 0 -13 2 -5 4 17 4 22 1 32 -1 23 -4z m440 -50 c-10 -2 -26 -2 -35 0
-10 3 -2 5 17 5 19 0 27 -2 18 -5z m62 -3 c0 -5 -2 -10 -4 -10 -3 0 -8 5 -11
10 -3 6 -1 10 4 10 6 0 11 -4 11 -10z m78 -7 c-10 -2 -28 -2 -40 0 -13 2 -5 4
17 4 22 1 32 -1 23 -4z m182 -19 c0 -2 -21 -4 -46 -4 -25 0 -43 4 -40 8 4 7
86 4 86 -4z m126 -9 c18 -13 16 -14 -23 -13 -56 2 -57 16 -2 27 3 0 14 -6 25
-14z m163 -21 c2 -2 -24 -4 -58 -4 -34 0 -60 4 -57 9 6 8 106 4 115 -5z m1358
-16 c-3 -8 -6 -5 -6 6 -1 11 2 17 5 13 3 -3 4 -12 1 -19z m-687 -4 c0 -8 -5
-12 -10 -9 -6 4 -8 11 -5 16 9 14 15 11 15 -7z m-2247 -1 c-7 -2 -19 -2 -25 0
-7 3 -2 5 12 5 14 0 19 -2 13 -5z m1002 -12 c54 -11 61 -11 -139 5 -27 2 -52
6 -55 10 -8 8 130 -3 194 -15z m672 13 c-3 -3 -12 -4 -19 -1 -8 3 -5 6 6 6 11
1 17 -2 13 -5z m-1410 -30 c-3 -3 -12 -4 -19 -1 -8 3 -5 6 6 6 11 1 17 -2 13
-5z m860 0 c-3 -3 -12 -4 -19 -1 -8 3 -5 6 6 6 11 1 17 -2 13 -5z m76 -1 c-7
-2 -21 -2 -30 0 -10 3 -4 5 12 5 17 0 24 -2 18 -5z m-438 -53 l20 -9 -20 0
c-11 0 -38 4 -60 8 l-40 9 40 0 c22 0 49 -3 60 -8z m1137 -32 c-5 -5 -28 -6
-53 -2 -29 5 -38 9 -25 14 26 9 90 0 78 -12z m598 -158 c18 -12 -50 -12 -125
0 -48 7 -46 7 30 9 44 0 87 -4 95 -9z m-500 -347 c0 -5 -5 -15 -10 -23 -8 -12
-10 -11 -10 8 0 12 5 22 10 22 6 0 10 -3 10 -7z m-6875 -221 c2 -15 0 -19 -11
-15 -15 5 -19 25 -7 36 8 9 13 4 18 -21z m5860 -482 c-23 -9 -41 3 -31 19 5 8
13 8 29 -1 21 -11 21 -11 2 -18z m1032 8 c-3 -8 -6 -5 -6 6 -1 11 2 17 5 13 3
-3 4 -12 1 -19z m223 15 c0 -5 -5 -15 -10 -23 -8 -12 -10 -11 -10 8 0 12 5 22
10 22 6 0 10 -3 10 -7z m-1133 -19 c-3 -3 -12 -4 -19 -1 -8 3 -5 6 6 6 11 1
17 -2 13 -5z m200 -10 c-3 -3 -12 -4 -19 -1 -8 3 -5 6 6 6 11 1 17 -2 13 -5z
m783 -16 c0 -18 -2 -20 -9 -8 -6 8 -7 18 -5 22 9 14 14 9 14 -14z m38 0 c17
-17 15 -24 -8 -25 -14 -1 -20 4 -20 18 0 22 11 24 28 7z m238 -15 c-10 -10
-19 5 -10 18 6 11 8 11 12 0 2 -7 1 -15 -2 -18z m-36 -23 c0 -5 -4 -10 -10
-10 -5 0 -10 5 -10 10 0 6 5 10 10 10 6 0 10 -4 10 -10z"/>
<path d="M6720 6270 c0 -5 7 -10 15 -10 8 0 15 5 15 10 0 6 -7 10 -15 10 -8 0
-15 -4 -15 -10z"/>
<path d="M6773 6253 c-20 -8 -15 -23 7 -23 11 0 20 7 20 15 0 15 -6 17 -27 8z"/>
<path d="M6705 6240 c-3 -5 -1 -10 4 -10 6 0 11 5 11 10 0 6 -2 10 -4 10 -3 0
-8 -4 -11 -10z"/>
<path d="M6865 5980 c3 -5 8 -10 11 -10 2 0 4 5 4 10 0 6 -5 10 -11 10 -5 0
-7 -4 -4 -10z"/>
<path d="M6510 5899 c0 -5 5 -7 10 -4 6 3 10 8 10 11 0 2 -4 4 -10 4 -5 0 -10
-5 -10 -11z"/>
<path d="M6818 5863 c12 -2 32 -2 45 0 12 2 2 4 -23 4 -25 0 -35 -2 -22 -4z"/>
<path d="M6790 5791 c0 -46 6 -52 59 -56 21 -1 43 -5 49 -9 13 -8 42 3 42 15
0 5 -17 9 -39 9 -30 0 -40 4 -44 20 -3 11 -10 20 -17 20 -7 0 -14 -9 -17 -20
-3 -11 -9 -20 -14 -20 -12 0 -11 37 1 45 15 10 12 35 -5 35 -11 0 -15 -11 -15
-39z"/>
<path d="M6860 5816 c0 -8 5 -18 10 -21 6 -3 10 3 10 14 0 12 -4 21 -10 21 -5
0 -10 -6 -10 -14z"/>
<path d="M7608 5753 c7 -3 16 -2 19 1 4 3 -2 6 -13 5 -11 0 -14 -3 -6 -6z"/>
<path d="M6734 5719 c-3 -6 -1 -16 5 -22 8 -8 11 -5 11 11 0 24 -5 28 -16 11z"/>
<path d="M7390 5691 c0 -15 6 -21 21 -21 14 0 19 5 17 17 -5 26 -38 29 -38 4z"/>
<path d="M6851 5681 c-27 -24 -19 -29 58 -39 63 -9 69 -5 55 32 -5 12 -9 13
-25 3 -17 -10 -22 -9 -30 6 -13 22 -31 22 -58 -2z"/>
<path d="M7310 5686 c0 -10 9 -16 25 -16 14 0 25 5 25 10 0 6 -4 10 -9 10 -5
0 -16 3 -25 6 -11 4 -16 1 -16 -10z"/>
<path d="M7002 5638 c3 -18 7 -40 9 -48 2 -9 -10 -21 -33 -33 -35 -17 -52 -47
-28 -47 6 0 10 5 10 10 0 6 18 10 40 10 38 0 39 -1 34 -30 -4 -16 -3 -46 1
-67 6 -32 9 -35 15 -18 4 11 4 28 -1 37 -5 9 -6 44 -3 77 6 53 5 61 -10 61
-18 0 -19 5 -6 35 5 11 9 14 9 8 1 -18 28 -16 35 3 11 29 6 34 -35 34 -41 0
-41 0 -37 -32z"/>
<path d="M7296 5645 c-20 -15 -20 -15 0 -30 23 -17 31 -18 39 -5 13 22 25 8
25 -30 l0 -40 -41 0 c-33 0 -40 -3 -37 -17 3 -15 12 -17 47 -15 24 2 51 12 61
22 9 9 24 20 31 22 11 4 11 12 1 46 -14 46 -27 59 -46 43 -9 -8 -18 -7 -32 4
-23 18 -25 18 -48 0z"/>
<path d="M7197 5634 c-15 -15 -6 -24 22 -24 17 0 33 5 36 10 3 6 0 10 -9 10
-8 0 -21 2 -28 5 -8 3 -17 2 -21 -1z"/>
<path d="M7106 5605 c-16 -12 -17 -15 -4 -15 9 0 18 7 22 15 7 18 6 18 -18 0z"/>
<path d="M6817 5596 c-32 -24 -21 -46 23 -46 28 0 40 -4 40 -14 0 -9 -15 -17
-40 -21 -25 -4 -40 -12 -40 -21 0 -10 12 -14 40 -14 28 0 40 4 40 14 0 8 6 16
13 19 17 5 -10 55 -35 63 -10 3 -16 9 -13 14 9 15 -10 19 -28 6z"/>
<path d="M6902 5573 c2 -10 10 -18 18 -18 8 0 16 8 18 18 2 12 -3 17 -18 17
-15 0 -20 -5 -18 -17z"/>
<path d="M7223 5550 c0 -25 2 -35 4 -22 2 12 2 32 0 45 -2 12 -4 2 -4 -23z"/>
<path d="M6980 5470 c0 -22 5 -40 10 -40 6 0 10 18 10 40 0 22 -4 40 -10 40
-5 0 -10 -18 -10 -40z"/>
<path d="M7311 5464 c-6 -13 -8 -31 -5 -39 7 -17 34 -21 34 -5 0 6 11 10 25
10 28 0 31 8 13 32 -23 27 -55 28 -67 2z"/>
<path d="M7107 5446 c-6 -15 10 -26 30 -19 15 5 5 33 -12 33 -7 0 -15 -6 -18
-14z"/>
<path d="M4806 6091 c-4 -7 -5 -15 -2 -18 9 -9 19 4 14 18 -4 11 -6 11 -12 0z"/>
<path d="M4750 6000 c0 -5 5 -10 11 -10 5 0 7 5 4 10 -3 6 -8 10 -11 10 -2 0
-4 -4 -4 -10z"/>
<path d="M4732 5955 c-7 -14 -12 -34 -12 -44 0 -9 -13 -27 -30 -39 -35 -26
-41 -62 -10 -62 11 0 20 5 20 10 0 6 11 10 25 10 22 0 25 4 25 38 0 30 5 39
25 49 22 10 25 9 25 -8 0 -22 13 -25 29 -5 15 18 -22 62 -60 71 -20 5 -27 1
-37 -20z"/>
<path d="M4890 5960 c0 -5 5 -10 11 -10 5 0 7 5 4 10 -3 6 -8 10 -11 10 -2 0
-4 -4 -4 -10z"/>
<path d="M4860 5920 c0 -5 5 -10 10 -10 6 0 10 5 10 10 0 6 -4 10 -10 10 -5 0
-10 -4 -10 -10z"/>
<path d="M4880 5815 c0 -9 6 -12 15 -9 8 4 15 10 15 15 0 5 -7 9 -15 9 -8 0
-15 -7 -15 -15z"/>
<path d="M4985 5800 c-3 -5 -1 -10 4 -10 6 0 11 5 11 10 0 6 -2 10 -4 10 -3 0
-8 -4 -11 -10z"/>
<path d="M4880 5765 c0 -8 7 -15 15 -15 8 0 15 4 15 9 0 5 -7 11 -15 15 -9 3
-15 0 -15 -9z"/>
<path d="M4480 5680 c0 -5 5 -10 11 -10 5 0 7 5 4 10 -3 6 -8 10 -11 10 -2 0
-4 -4 -4 -10z"/>
<path d="M4356 5845 c4 -8 8 -15 10 -15 2 0 4 7 4 15 0 8 -4 15 -10 15 -5 0
-7 -7 -4 -15z"/>
<path d="M4230 5448 c0 -9 -6 -19 -12 -21 -10 -4 -10 -6 0 -6 14 -1 28 26 18
36 -3 4 -6 -1 -6 -9z"/>
<path d="M8536 1841 c-3 -5 1 -11 9 -15 9 -3 15 0 15 9 0 16 -16 20 -24 6z"/>
<path d="M9470 1588 c0 -13 11 -84 24 -158 l23 -135 37 -3 38 -3 -5 63 c-2 35
-11 90 -20 123 -9 33 -16 73 -17 88 0 28 -3 31 -52 41 -24 6 -28 3 -28 -16z"/>
<path d="M9240 1473 c-1 -45 -3 -54 -11 -40 -17 29 -27 10 -27 -48 0 -40 4
-55 14 -55 8 0 14 9 14 20 0 20 19 29 21 10 1 -5 2 -15 3 -22 0 -6 6 -13 13
-15 7 -3 11 9 11 32 0 20 3 39 6 42 3 4 6 -5 6 -18 0 -28 16 -57 25 -47 10 9
-6 158 -16 158 -5 0 -9 -18 -9 -40 0 -39 -19 -58 -21 -22 -1 9 -3 26 -4 37 -1
11 -2 30 -3 43 -4 48 -22 19 -22 -35z"/>
<path d="M9171 1428 c1 -13 5 -36 9 -53 7 -27 8 -25 9 17 0 26 -3 50 -9 53 -6
3 -9 -4 -9 -17z"/>
<path d="M8783 1433 c-13 -5 -18 -55 -7 -66 7 -7 46 11 56 26 15 23 -18 50
-49 40z"/>
<path d="M9341 1368 c0 -7 4 -22 9 -33 7 -17 9 -15 9 13 1 17 -3 32 -9 32 -5
0 -10 -6 -9 -12z"/>
<path d="M106 713 c-6 -15 8 -32 27 -33 15 0 20 32 6 41 -20 13 -26 11 -33 -8z"/>
<path d="M8920 680 c0 -5 5 -10 10 -10 6 0 10 5 10 10 0 6 -4 10 -10 10 -5 0
-10 -4 -10 -10z"/>
<path d="M8929 649 c-8 -15 -13 -18 -18 -10 -10 16 -35 -13 -28 -31 4 -8 6 -7
6 5 1 9 6 17 11 17 14 0 13 -4 -11 -50 -21 -40 -51 -65 -63 -53 -3 3 -6 -9 -6
-28 0 -36 -14 -59 -34 -55 -6 2 -8 1 -3 -1 11 -7 8 -21 -10 -43 -12 -13 -19
-16 -24 -8 -4 7 -14 -2 -24 -22 -14 -27 -15 -34 -3 -41 24 -16 34 -10 58 34
12 23 38 63 56 90 19 26 34 51 34 56 0 5 6 16 13 23 13 13 77 124 77 133 0 13
-21 3 -31 -16z"/>
<path d="M9041 631 c-7 -5 -11 -15 -9 -22 3 -10 8 -7 17 9 13 24 12 26 -8 13z"/>
<path d="M8565 610 c-10 -11 -15 -26 -11 -36 4 -10 -3 -25 -19 -40 l-25 -23
22 -15 c12 -8 25 -13 31 -9 12 8 57 -18 57 -33 0 -23 31 -24 66 -1 29 18 34
26 30 50 -4 18 -1 27 8 27 14 0 30 66 20 82 -9 15 -30 9 -58 -17 l-27 -25 -25
30 c-30 35 -44 37 -69 10z"/>
<path d="M9006 563 c-6 -14 -5 -15 5 -6 7 7 10 15 7 18 -3 3 -9 -2 -12 -12z"/>
<path d="M9050 568 c-36 -45 -115 -178 -105 -178 10 0 54 54 61 75 3 11 16 34
28 50 33 44 46 89 16 53z"/>
<path d="M8964 517 c-17 -19 -44 -70 -44 -82 0 -18 19 3 43 46 31 55 32 72 1
36z"/>
<path d="M8897 413 c-10 -9 -9 -23 2 -23 5 0 11 7 15 15 5 15 -5 20 -17 8z"/>
<path d="M8871 354 c0 -11 3 -14 6 -6 3 7 2 16 -1 19 -3 4 -6 -2 -5 -13z"/>
<path d="M8837 303 c-4 -3 -7 -11 -7 -17 0 -6 5 -5 12 2 6 6 9 14 7 17 -3 3
-9 2 -12 -2z"/>
</g>
</svg>
