<?xml version="1.0" encoding="UTF-8" standalone="no"?><svg xmlns="http://www.w3.org/2000/svg" xmlns:xlink="http://www.w3.org/1999/xlink" contentScriptType="application/ecmascript" contentStyleType="text/css" height="914px" preserveAspectRatio="none" style="width:756px;height:914px;background:#FFFFFF;" version="1.1" viewBox="0 0 756 914" width="756px" zoomAndPan="magnify"><defs><filter height="300%" id="f18p12ksx57apt" width="300%" x="-1" y="-1"><feGaussianBlur result="blurOut" stdDeviation="2.0"/><feColorMatrix in="blurOut" result="blurOut2" type="matrix" values="0 0 0 0 0 0 0 0 0 0 0 0 0 0 0 0 0 0 .4 0"/><feOffset dx="4.0" dy="4.0" in="blurOut2" result="blurOut3"/><feBlend in="SourceGraphic" in2="blurOut3" mode="normal"/></filter></defs><g><!--MD5=[15b719c9c6da809e4f563fab242bdaca]
class TemplatesImpl--><rect codeLine="1" fill="#FEFECE" filter="url(#f18p12ksx57apt)" height="93.0688" id="TemplatesImpl" style="stroke:#A80036;stroke-width:1.5;" width="153" x="203.5" y="807"/><ellipse cx="235.6" cy="823" fill="#ADD1B2" rx="11" ry="11" style="stroke:#A80036;stroke-width:1.0;"/><path d="M234.9438,828.8594 Q232.9594,828.8594 231.7875,827.3906 Q230.6313,825.9063 230.6313,822.8281 Q230.6313,820.2188 231.85,818.4688 Q233.0844,816.7188 235.2094,816.7188 Q235.7094,816.7188 236.2406,816.8594 Q236.6781,817.0469 236.9438,817.0469 Q237.1625,817.0469 237.2563,817 Q237.3656,816.9531 237.8188,816.3594 L238.5844,820.0938 L237.6938,820.3594 Q237.2406,818.9063 236.6313,818.3125 Q236.0375,817.7031 235.0844,817.7031 Q233.8656,817.7031 233.1469,819.1406 Q232.4281,820.5625 232.4281,822.75 Q232.4281,825.1563 233.0375,826.4531 Q233.6625,827.7344 235.0219,827.7344 Q235.975,827.7344 236.6625,827.0469 Q237.35,826.3438 237.6781,824.8438 L238.5844,825.25 Q238.1781,826.9531 237.2094,827.9063 Q236.2563,828.8594 234.9438,828.8594 Z " fill="#000000"/><text fill="#000000" font-family="sans-serif" font-size="12" lengthAdjust="spacing" textLength="83" x="253.4" y="828.5576">TemplatesImpl</text><line style="stroke:#A80036;stroke-width:1.5;" x1="204.5" x2="355.5" y1="839" y2="839"/><rect fill="none" height="6" style="stroke:#C82930;stroke-width:1.0;" width="6" x="211.5" y="847"/><text fill="#000000" font-family="sans-serif" font-size="11" lengthAdjust="spacing" textLength="93" x="223.5" y="855.606">byte[][] _bytecodes</text><rect fill="none" height="6" style="stroke:#C82930;stroke-width:1.0;" width="6" x="211.5" y="862.0229"/><text fill="#000000" font-family="sans-serif" font-size="11" lengthAdjust="spacing" textLength="109" x="223.5" y="870.6289">String _name = "Pwnr"</text><rect fill="none" height="6" style="stroke:#C82930;stroke-width:1.0;" width="6" x="211.5" y="877.0459"/><text fill="#000000" font-family="sans-serif" font-size="11" lengthAdjust="spacing" textLength="127" x="223.5" y="885.6519">&lt;TransformerFactoryImpl&gt;</text><line style="stroke:#A80036;stroke-width:1.5;" x1="204.5" x2="355.5" y1="892.0688" y2="892.0688"/><!--MD5=[3f725b52678a36935d6a057c3e976b0c]
class StubTransletPayload--><rect codeLine="6" fill="#FEFECE" filter="url(#f18p12ksx57apt)" height="63.0229" id="StubTransletPayload" style="stroke:#A80036;stroke-width:1.5;" width="146" x="535" y="822"/><ellipse cx="550" cy="838" fill="#ADD1B2" rx="11" ry="11" style="stroke:#A80036;stroke-width:1.0;"/><path d="M549.3438,843.8594 Q547.3594,843.8594 546.1875,842.3906 Q545.0313,840.9063 545.0313,837.8281 Q545.0313,835.2188 546.25,833.4688 Q547.4844,831.7188 549.6094,831.7188 Q550.1094,831.7188 550.6406,831.8594 Q551.0781,832.0469 551.3438,832.0469 Q551.5625,832.0469 551.6563,832 Q551.7656,831.9531 552.2188,831.3594 L552.9844,835.0938 L552.0938,835.3594 Q551.6406,833.9063 551.0313,833.3125 Q550.4375,832.7031 549.4844,832.7031 Q548.2656,832.7031 547.5469,834.1406 Q546.8281,835.5625 546.8281,837.75 Q546.8281,840.1563 547.4375,841.4531 Q548.0625,842.7344 549.4219,842.7344 Q550.375,842.7344 551.0625,842.0469 Q551.75,841.3438 552.0781,839.8438 L552.9844,840.25 Q552.5781,841.9531 551.6094,842.9063 Q550.6563,843.8594 549.3438,843.8594 Z " fill="#000000"/><text fill="#000000" font-family="sans-serif" font-size="12" lengthAdjust="spacing" textLength="114" x="564" y="843.5576">StubTransletPayload</text><line style="stroke:#A80036;stroke-width:1.5;" x1="536" x2="680" y1="854" y2="854"/><text fill="#000000" font-family="sans-serif" font-size="11" lengthAdjust="spacing" textLength="83" x="541" y="870.606">static {command}</text><line style="stroke:#A80036;stroke-width:1.5;" x1="536" x2="680" y1="877.0229" y2="877.0229"/><!--MD5=[42f68590bdcd95487ffa5226c405ff54]
class AbstractTranslet--><rect codeLine="9" fill="#FEFECE" filter="url(#f18p12ksx57apt)" height="48" id="AbstractTranslet" style="stroke:#A80036;stroke-width:1.5;" width="121" x="621.5" y="657.5"/><ellipse cx="636.5" cy="673.5" fill="#A9DCDF" rx="11" ry="11" style="stroke:#A80036;stroke-width:1.0;"/><path d="M636.9219,673.9844 L634.3594,673.9844 L633.8281,676.2813 Q633.7656,676.6094 633.7656,676.7656 Q633.7656,676.9844 633.8125,677.1406 Q633.875,677.2969 634.1563,677.2969 L634.625,677.2969 L634.625,678.2344 L631.6406,678.2344 L631.6406,677.2969 L632.0938,677.2969 Q632.2656,677.2969 632.3906,677.2031 Q632.5156,677.0938 632.5625,676.7969 L635.2031,666.4688 L636.6094,666 L639.1875,676.7656 Q639.2969,677.0781 639.4219,677.1875 Q639.5625,677.2969 639.7344,677.2969 L640.2031,677.2969 L640.2031,678.2344 L636.8125,678.2344 L636.8125,677.2969 L637.3438,677.2969 Q637.5625,677.2969 637.5781,677.25 Q637.6094,677.1875 637.6094,677.1094 Q637.6094,676.8906 637.5625,676.7031 L636.9219,673.9844 Z M632.3594,677.8281 L632.3594,677.8281 Z M633.0313,677.8281 L633.0313,677.8281 Z M637.75,677.8281 L637.75,677.8281 Z M638.875,677.8281 L638.875,677.8281 Z M635.6875,667.8906 L635.75,667.8906 L634.6406,673.0469 L636.7344,673.0469 L635.6875,667.8906 Z " fill="#000000"/><text fill="#000000" font-family="sans-serif" font-size="12" font-style="italic" lengthAdjust="spacing" textLength="89" x="650.5" y="679.0576">AbstractTranslet</text><line style="stroke:#A80036;stroke-width:1.5;" x1="622.5" x2="741.5" y1="689.5" y2="689.5"/><line style="stroke:#A80036;stroke-width:1.5;" x1="622.5" x2="741.5" y1="697.5" y2="697.5"/><!--MD5=[ecce48b6c46b384f557036a3a47dc8e4]
class getters--><rect codeLine="12" fill="#FEFECE" filter="url(#f18p12ksx57apt)" height="48" id="getters" style="stroke:#A80036;stroke-width:1.5;" width="78" x="508" y="657.5"/><ellipse cx="523" cy="673.5" fill="#ADD1B2" rx="11" ry="11" style="stroke:#A80036;stroke-width:1.0;"/><path d="M522.3438,679.3594 Q520.3594,679.3594 519.1875,677.8906 Q518.0313,676.4063 518.0313,673.3281 Q518.0313,670.7188 519.25,668.9688 Q520.4844,667.2188 522.6094,667.2188 Q523.1094,667.2188 523.6406,667.3594 Q524.0781,667.5469 524.3438,667.5469 Q524.5625,667.5469 524.6563,667.5 Q524.7656,667.4531 525.2188,666.8594 L525.9844,670.5938 L525.0938,670.8594 Q524.6406,669.4063 524.0313,668.8125 Q523.4375,668.2031 522.4844,668.2031 Q521.2656,668.2031 520.5469,669.6406 Q519.8281,671.0625 519.8281,673.25 Q519.8281,675.6563 520.4375,676.9531 Q521.0625,678.2344 522.4219,678.2344 Q523.375,678.2344 524.0625,677.5469 Q524.75,676.8438 525.0781,675.3438 L525.9844,675.75 Q525.5781,677.4531 524.6094,678.4063 Q523.6563,679.3594 522.3438,679.3594 Z " fill="#000000"/><text fill="#000000" font-family="sans-serif" font-size="12" lengthAdjust="spacing" textLength="46" x="537" y="679.0576">Getter[1]</text><line style="stroke:#A80036;stroke-width:1.5;" x1="509" x2="585" y1="689.5" y2="689.5"/><line style="stroke:#A80036;stroke-width:1.5;" x1="509" x2="585" y1="697.5" y2="697.5"/><!--MD5=[d82b0bc04c16fa42f77b93b986eea3e0]
class basic--><rect codeLine="13" fill="#FEFECE" filter="url(#f18p12ksx57apt)" height="93.0688" id="basic" style="stroke:#A80036;stroke-width:1.5;" width="353" x="103.5" y="635"/><ellipse cx="176.75" cy="651" fill="#ADD1B2" rx="11" ry="11" style="stroke:#A80036;stroke-width:1.0;"/><path d="M176.0938,656.8594 Q174.1094,656.8594 172.9375,655.3906 Q171.7813,653.9063 171.7813,650.8281 Q171.7813,648.2188 173,646.4688 Q174.2344,644.7188 176.3594,644.7188 Q176.8594,644.7188 177.3906,644.8594 Q177.8281,645.0469 178.0938,645.0469 Q178.3125,645.0469 178.4063,645 Q178.5156,644.9531 178.9688,644.3594 L179.7344,648.0938 L178.8438,648.3594 Q178.3906,646.9063 177.7813,646.3125 Q177.1875,645.7031 176.2344,645.7031 Q175.0156,645.7031 174.2969,647.1406 Q173.5781,648.5625 173.5781,650.75 Q173.5781,653.1563 174.1875,654.4531 Q174.8125,655.7344 176.1719,655.7344 Q177.125,655.7344 177.8125,655.0469 Q178.5,654.3438 178.8281,652.8438 L179.7344,653.25 Q179.3281,654.9531 178.3594,655.9063 Q177.4063,656.8594 176.0938,656.8594 Z " fill="#000000"/><text fill="#000000" font-family="sans-serif" font-size="12" lengthAdjust="spacing" textLength="198" x="197.25" y="656.5576">BasicPropertyAccessor$BasicGetter</text><line style="stroke:#A80036;stroke-width:1.5;" x1="104.5" x2="455.5" y1="667" y2="667"/><rect fill="none" height="6" style="stroke:#C82930;stroke-width:1.0;" width="6" x="111.5" y="675"/><text fill="#000000" font-family="sans-serif" font-size="11" lengthAdjust="spacing" textLength="56" x="123.5" y="683.606">Class clazz</text><rect fill="none" height="6" style="stroke:#C82930;stroke-width:1.0;" width="6" x="111.5" y="690.0229"/><text fill="#000000" font-family="sans-serif" font-size="11" lengthAdjust="spacing" textLength="221" x="123.5" y="698.6289">final String propertyName = "outputProperties"</text><line style="stroke:#A80036;stroke-width:1.5;" x1="104.5" x2="455.5" y1="705.0459" y2="705.0459"/><rect fill="#F24D5C" height="6" style="stroke:#C82930;stroke-width:1.0;" width="6" x="111.5" y="713.0459"/><text fill="#000000" font-family="sans-serif" font-size="11" lengthAdjust="spacing" textLength="327" x="123.5" y="721.6519">final transient Method method = TemplatesImpl.getOutputProperties()</text><!--MD5=[702f122c79729df12a8a52022932f992]
class HashMap--><rect codeLine="20" fill="#FEFECE" filter="url(#f18p12ksx57apt)" height="78.0459" id="HashMap" style="stroke:#A80036;stroke-width:1.5;" width="144" x="7" y="7"/><ellipse cx="48.55" cy="23" fill="#ADD1B2" rx="11" ry="11" style="stroke:#A80036;stroke-width:1.0;"/><path d="M47.8938,28.8594 Q45.9094,28.8594 44.7375,27.3906 Q43.5813,25.9063 43.5813,22.8281 Q43.5813,20.2188 44.8,18.4688 Q46.0344,16.7188 48.1594,16.7188 Q48.6594,16.7188 49.1906,16.8594 Q49.6281,17.0469 49.8938,17.0469 Q50.1125,17.0469 50.2063,17 Q50.3156,16.9531 50.7688,16.3594 L51.5344,20.0938 L50.6438,20.3594 Q50.1906,18.9063 49.5813,18.3125 Q48.9875,17.7031 48.0344,17.7031 Q46.8156,17.7031 46.0969,19.1406 Q45.3781,20.5625 45.3781,22.75 Q45.3781,25.1563 45.9875,26.4531 Q46.6125,27.7344 47.9719,27.7344 Q48.925,27.7344 49.6125,27.0469 Q50.3,26.3438 50.6281,24.8438 L51.5344,25.25 Q51.1281,26.9531 50.1594,27.9063 Q49.2063,28.8594 47.8938,28.8594 Z " fill="#000000"/><text fill="#000000" font-family="sans-serif" font-size="12" lengthAdjust="spacing" textLength="53" x="68.45" y="28.5576">HashMap</text><line style="stroke:#A80036;stroke-width:1.5;" x1="8" x2="150" y1="39" y2="39"/><text fill="#000000" font-family="sans-serif" font-size="11" lengthAdjust="spacing" textLength="97" x="13" y="55.606">transient int size = 2</text><text fill="#000000" font-family="sans-serif" font-size="11" lengthAdjust="spacing" textLength="132" x="13" y="70.6289">transient Node&lt;K,V&gt;[] table</text><line style="stroke:#A80036;stroke-width:1.5;" x1="8" x2="150" y1="77.0459" y2="77.0459"/><!--MD5=[73671a2d40768396e2e203cb795afd33]
class TypedValue--><rect codeLine="24" fill="#FEFECE" filter="url(#f18p12ksx57apt)" height="78.0459" id="TypedValue" style="stroke:#A80036;stroke-width:1.5;" width="109" x="24.5" y="164"/><ellipse cx="45.35" cy="180" fill="#ADD1B2" rx="11" ry="11" style="stroke:#A80036;stroke-width:1.0;"/><path d="M44.6938,185.8594 Q42.7094,185.8594 41.5375,184.3906 Q40.3813,182.9063 40.3813,179.8281 Q40.3813,177.2188 41.6,175.4688 Q42.8344,173.7188 44.9594,173.7188 Q45.4594,173.7188 45.9906,173.8594 Q46.4281,174.0469 46.6938,174.0469 Q46.9125,174.0469 47.0063,174 Q47.1156,173.9531 47.5688,173.3594 L48.3344,177.0938 L47.4438,177.3594 Q46.9906,175.9063 46.3813,175.3125 Q45.7875,174.7031 44.8344,174.7031 Q43.6156,174.7031 42.8969,176.1406 Q42.1781,177.5625 42.1781,179.75 Q42.1781,182.1563 42.7875,183.4531 Q43.4125,184.7344 44.7719,184.7344 Q45.725,184.7344 46.4125,184.0469 Q47.1,183.3438 47.4281,181.8438 L48.3344,182.25 Q47.9281,183.9531 46.9594,184.9063 Q46.0063,185.8594 44.6938,185.8594 Z " fill="#000000"/><text fill="#000000" font-family="sans-serif" font-size="12" lengthAdjust="spacing" textLength="64" x="60.65" y="185.5576">TypedValue</text><line style="stroke:#A80036;stroke-width:1.5;" x1="25.5" x2="132.5" y1="196" y2="196"/><rect fill="none" height="6" style="stroke:#C82930;stroke-width:1.0;" width="6" x="32.5" y="204"/><text fill="#000000" font-family="sans-serif" font-size="11" lengthAdjust="spacing" textLength="71" x="44.5" y="212.606">final Type type</text><rect fill="none" height="6" style="stroke:#C82930;stroke-width:1.0;" width="6" x="32.5" y="219.0229"/><text fill="#000000" font-family="sans-serif" font-size="11" lengthAdjust="spacing" textLength="83" x="44.5" y="227.6289">final Object value</text><line style="stroke:#A80036;stroke-width:1.5;" x1="25.5" x2="132.5" y1="234.0459" y2="234.0459"/><!--MD5=[c7ffb9edfd102118430eb07dc6c6f7f9]
class t--><rect codeLine="28" fill="#FEFECE" filter="url(#f18p12ksx57apt)" height="93.0688" id="t" style="stroke:#A80036;stroke-width:1.5;" width="153" x="199.5" y="321"/><ellipse cx="228" cy="337" fill="#ADD1B2" rx="11" ry="11" style="stroke:#A80036;stroke-width:1.0;"/><path d="M227.3438,342.8594 Q225.3594,342.8594 224.1875,341.3906 Q223.0313,339.9063 223.0313,336.8281 Q223.0313,334.2188 224.25,332.4688 Q225.4844,330.7188 227.6094,330.7188 Q228.1094,330.7188 228.6406,330.8594 Q229.0781,331.0469 229.3438,331.0469 Q229.5625,331.0469 229.6563,331 Q229.7656,330.9531 230.2188,330.3594 L230.9844,334.0938 L230.0938,334.3594 Q229.6406,332.9063 229.0313,332.3125 Q228.4375,331.7031 227.4844,331.7031 Q226.2656,331.7031 225.5469,333.1406 Q224.8281,334.5625 224.8281,336.75 Q224.8281,339.1563 225.4375,340.4531 Q226.0625,341.7344 227.4219,341.7344 Q228.375,341.7344 229.0625,341.0469 Q229.75,340.3438 230.0781,338.8438 L230.9844,339.25 Q230.5781,340.9531 229.6094,341.9063 Q228.6563,342.8594 227.3438,342.8594 Z " fill="#000000"/><text fill="#000000" font-family="sans-serif" font-size="12" lengthAdjust="spacing" textLength="91" x="245" y="342.5576">ComponentType</text><line style="stroke:#A80036;stroke-width:1.5;" x1="200.5" x2="351.5" y1="353" y2="353"/><polygon fill="none" points="210.5,359,214.5,363,210.5,367,206.5,363" style="stroke:#B38D22;stroke-width:1.0;"/><text fill="#000000" font-family="sans-serif" font-size="11" lengthAdjust="spacing" textLength="115" x="219.5" y="369.606">final ComponentTuplizer</text><polygon fill="none" points="210.5,374.0229,214.5,378.0229,210.5,382.0229,206.5,378.0229" style="stroke:#B38D22;stroke-width:1.0;"/><text fill="#000000" font-family="sans-serif" font-size="11" lengthAdjust="spacing" textLength="121" x="219.5" y="384.6289">final int propertySpan = 1</text><rect fill="none" height="6" style="stroke:#C82930;stroke-width:1.0;" width="6" x="207.5" y="391.0459"/><text fill="#000000" font-family="sans-serif" font-size="11" lengthAdjust="spacing" textLength="127" x="219.5" y="399.6519">final Type[] propertyTypes</text><line style="stroke:#A80036;stroke-width:1.5;" x1="200.5" x2="351.5" y1="406.0688" y2="406.0688"/><!--MD5=[fca667a009505c60d170c3928ddac4e4]
class tup--><rect codeLine="33" fill="#FEFECE" filter="url(#f18p12ksx57apt)" height="63.0229" id="tup" style="stroke:#A80036;stroke-width:1.5;" width="165" x="290.5" y="493"/><ellipse cx="305.5" cy="509" fill="#ADD1B2" rx="11" ry="11" style="stroke:#A80036;stroke-width:1.0;"/><path d="M304.8438,514.8594 Q302.8594,514.8594 301.6875,513.3906 Q300.5313,511.9063 300.5313,508.8281 Q300.5313,506.2188 301.75,504.4688 Q302.9844,502.7188 305.1094,502.7188 Q305.6094,502.7188 306.1406,502.8594 Q306.5781,503.0469 306.8438,503.0469 Q307.0625,503.0469 307.1563,503 Q307.2656,502.9531 307.7188,502.3594 L308.4844,506.0938 L307.5938,506.3594 Q307.1406,504.9063 306.5313,504.3125 Q305.9375,503.7031 304.9844,503.7031 Q303.7656,503.7031 303.0469,505.1406 Q302.3281,506.5625 302.3281,508.75 Q302.3281,511.1563 302.9375,512.4531 Q303.5625,513.7344 304.9219,513.7344 Q305.875,513.7344 306.5625,513.0469 Q307.25,512.3438 307.5781,510.8438 L308.4844,511.25 Q308.0781,512.9531 307.1094,513.9063 Q306.1563,514.8594 304.8438,514.8594 Z " fill="#000000"/><text fill="#000000" font-family="sans-serif" font-size="12" lengthAdjust="spacing" textLength="133" x="319.5" y="514.5576">PojoComponentTuplizer</text><line style="stroke:#A80036;stroke-width:1.5;" x1="291.5" x2="454.5" y1="525" y2="525"/><polygon fill="none" points="301.5,531,305.5,535,301.5,539,297.5,535" style="stroke:#B38D22;stroke-width:1.0;"/><text fill="#000000" font-family="sans-serif" font-size="11" lengthAdjust="spacing" textLength="57" x="310.5" y="541.606">final getters</text><line style="stroke:#A80036;stroke-width:1.5;" x1="291.5" x2="454.5" y1="548.0229" y2="548.0229"/><!--MD5=[98fbd023be9e15633d3cc78e61a4761c]
reverse link TemplatesImpl to StubTransletPayload--><path codeLine="10" d="M361.99,853.5 C415.12,853.5 483.71,853.5 534.96,853.5 " fill="none" id="TemplatesImpl-backto-StubTransletPayload" style="stroke:#A80036;stroke-width:1.0;"/><rect fill="#FFFFFF" height="10" style="stroke:#A80036;stroke-width:1.5;" width="10" x="351.9" y="848.5"/><text fill="#000000" font-family="sans-serif" font-size="13" lengthAdjust="spacing" textLength="67" x="412.25" y="847.3979">_bytecodes</text><!--MD5=[acaddf297e04fdbd531a33bed7cdabaa]
reverse link AbstractTranslet to StubTransletPayload--><path codeLine="11" d="M669.8,710.53 C656.46,741.16 635.17,790.08 621.39,821.74 " fill="none" id="AbstractTranslet-backto-StubTransletPayload" style="stroke:#A80036;stroke-width:1.0;stroke-dasharray:7.0,7.0;"/><polygon fill="#A80036" points="671.87,705.78,664.6155,712.4412,669.8779,710.366,671.9531,715.6285,671.87,705.78" style="stroke:#A80036;stroke-width:1.0;"/><text fill="#000000" font-family="sans-serif" font-size="13" lengthAdjust="spacing" textLength="46" x="648" y="773.8979">extends</text><!--MD5=[10e6bfd27eabf2c724eb861b3dd79c9d]
link getters to basic--><path codeLine="18" d="M507.93,681.5 C494.69,681.5 478.91,681.5 461.92,681.5 " fill="none" id="getters-to-basic" style="stroke:#A80036;stroke-width:1.0;"/><polygon fill="#A80036" points="456.61,681.5,465.61,685.5,461.61,681.5,465.61,677.5,456.61,681.5" style="stroke:#A80036;stroke-width:1.0;"/><text fill="#000000" font-family="sans-serif" font-size="13" lengthAdjust="spacing" textLength="15" x="474.75" y="675.3979">[0]</text><!--MD5=[b4f35c83d9dac116fb2f2368420e7c92]
link basic to TemplatesImpl--><path codeLine="19" d="M280,728.06 C280,750.73 280,778.22 280,801.59 " fill="none" id="basic-to-TemplatesImpl" style="stroke:#A80036;stroke-width:1.0;"/><polygon fill="#A80036" points="280,806.82,284,797.82,280,801.82,276,797.82,280,806.82" style="stroke:#A80036;stroke-width:1.0;"/><text fill="#000000" font-family="sans-serif" font-size="13" lengthAdjust="spacing" textLength="31" x="281" y="773.8979">clazz</text><!--MD5=[3c1245d5b47874e4b5e12296d9945072]
link t to tup--><path codeLine="36" d="M304.58,414.17 C319.46,437.94 337.36,466.56 351.13,488.55 " fill="none" id="t-to-tup" style="stroke:#A80036;stroke-width:1.0;"/><polygon fill="#A80036" points="353.82,492.85,352.442,483.098,351.17,488.61,345.658,487.338,353.82,492.85" style="stroke:#A80036;stroke-width:1.0;"/><text fill="#000000" font-family="sans-serif" font-size="13" lengthAdjust="spacing" textLength="111" x="334" y="459.8979">ComponentTuplizer</text><!--MD5=[d1375d37fcaafa6f536d7b51fdb3b968]
link t to t--><path codeLine="37" d="M352.61,351.54 C372.5,352.52 387.5,357.84 387.5,367.5 C387.5,376.33 374.97,381.53 357.62,383.11 " fill="none" id="t-to-t" style="stroke:#A80036;stroke-width:1.0;"/><polygon fill="#A80036" points="352.61,383.46,361.8728,386.8067,357.5972,383.1027,361.3012,378.8272,352.61,383.46" style="stroke:#A80036;stroke-width:1.0;"/><text fill="#000000" font-family="sans-serif" font-size="13" lengthAdjust="spacing" textLength="97" x="393.5" y="373.8979">propertyTypes[0]</text><!--MD5=[10a449a6c20fda46ea552f0226681122]
link tup to getters--><path codeLine="38" d="M407.38,556.12 C439.32,584.58 486.42,626.54 516.91,653.7 " fill="none" id="tup-to-getters" style="stroke:#A80036;stroke-width:1.0;"/><polygon fill="#A80036" points="520.91,657.26,516.8408,648.2911,517.173,653.9382,511.5259,654.2704,520.91,657.26" style="stroke:#A80036;stroke-width:1.0;"/><text fill="#000000" font-family="sans-serif" font-size="13" lengthAdjust="spacing" textLength="40" x="461" y="601.8979">getters</text><!--MD5=[0f6296487297c2b5f9eee2cc156e3f2c]
link HashMap to TypedValue--><path codeLine="39" d="M79,85.31 C79,107.57 79,135.67 79,158.72 " fill="none" id="HashMap-to-TypedValue" style="stroke:#A80036;stroke-width:1.0;"/><polygon fill="#A80036" points="79,163.86,83,154.86,79,158.86,75,154.86,79,163.86" style="stroke:#A80036;stroke-width:1.0;"/><text fill="#000000" font-family="sans-serif" font-size="13" lengthAdjust="spacing" textLength="90" x="80" y="130.8979">table[0]/table[1]</text><!--MD5=[970d7d643415aa7296bc715a9d96f18d]
link TypedValue to t--><path codeLine="40" d="M125.19,242.1 C152.51,264.63 187.39,293.41 216.72,317.6 " fill="none" id="TypedValue-to-t" style="stroke:#A80036;stroke-width:1.0;"/><polygon fill="#A80036" points="220.64,320.83,216.2286,312.0243,216.7779,317.6545,211.1477,318.2038,220.64,320.83" style="stroke:#A80036;stroke-width:1.0;"/><text fill="#000000" font-family="sans-serif" font-size="13" lengthAdjust="spacing" textLength="25" x="184" y="287.8979">type</text><!--MD5=[cca2384f7add192ff0d5d4517dad332f]
link TypedValue to TemplatesImpl--><path codeLine="41" d="M68.28,242.07 C60.02,274.79 50,323.37 50,366.5 C50,366.5 50,366.5 50,682.5 C50,758.63 132.5,804.55 198.68,829.13 " fill="none" id="TypedValue-to-TemplatesImpl" style="stroke:#A80036;stroke-width:1.0;"/><polygon fill="#A80036" points="203.41,830.87,196.3322,824.0213,198.7144,829.1521,193.5836,831.5343,203.41,830.87" style="stroke:#A80036;stroke-width:1.0;"/><text fill="#000000" font-family="sans-serif" font-size="13" lengthAdjust="spacing" textLength="29" x="51" y="530.8979">value</text><!--MD5=[4079efdd947946978d62de1598afa564]
@startuml
class TemplatesImpl {
    -byte[][] _bytecodes
    -String _name = "Pwnr"
    -<TransformerFactoryImpl>
}
class StubTransletPayload {
    static {command}
}
abstract class AbstractTranslet
TemplatesImpl #-right- StubTransletPayload : _bytecodes
StubTransletPayload .up.> AbstractTranslet : extends
class getters as "Getter[1]"
class basic as "BasicPropertyAccessor$BasicGetter" {
    -Class clazz
    -final transient Method method = TemplatesImpl.getOutputProperties()
    -final String propertyName = "outputProperties"
}
getters -right-> basic : "[0]"
basic - -> TemplatesImpl : "clazz"
class HashMap {
    transient int size = 2
    transient Node<K,V>[] table
}
class TypedValue {
    -final Type type
    -final Object value
}
class t as "ComponentType" {
    #final ComponentTuplizer
    #final int propertySpan = 1
    -final Type[] propertyTypes
}
class tup as "PojoComponentTuplizer" {
    #final getters
}
t - -> tup : "ComponentTuplizer"
t - -> t : "propertyTypes[0]"
tup - -> getters : "getters"
HashMap - -> TypedValue : "table[0]/table[1]"
TypedValue - -> t : "type"
TypedValue - -> TemplatesImpl : "value"
@enduml

PlantUML version 1.2022.0(Wed Jan 12 00:16:42 CST 2022)
(GPL source distribution)
Java Runtime: Java(TM) SE Runtime Environment
JVM: Java HotSpot(TM) 64-Bit Server VM
Default Encoding: GBK
Language: en
Country: US
--></g></svg>