<?xml version="1.0" encoding="UTF-8" standalone="no"?><svg xmlns="http://www.w3.org/2000/svg" xmlns:xlink="http://www.w3.org/1999/xlink" contentScriptType="application/ecmascript" contentStyleType="text/css" height="286px" preserveAspectRatio="none" style="width:660px;height:286px;background:#FFFFFF;" version="1.1" viewBox="0 0 660 286" width="660px" zoomAndPan="magnify"><defs><filter height="300%" id="f12pdramlvi5f" width="300%" x="-1" y="-1"><feGaussianBlur result="blurOut" stdDeviation="2.0"/><feColorMatrix in="blurOut" result="blurOut2" type="matrix" values="0 0 0 0 0 0 0 0 0 0 0 0 0 0 0 0 0 0 .4 0"/><feOffset dx="4.0" dy="4.0" in="blurOut2" result="blurOut3"/><feBlend in="SourceGraphic" in2="blurOut3" mode="normal"/></filter></defs><g><!--MD5=[15b719c9c6da809e4f563fab242bdaca]
class TemplatesImpl--><rect codeLine="1" fill="#FEFECE" filter="url(#f12pdramlvi5f)" height="93.0688" id="TemplatesImpl" style="stroke:#A80036;stroke-width:1.5;" width="153" x="200" y="179"/><ellipse cx="232.1" cy="195" fill="#ADD1B2" rx="11" ry="11" style="stroke:#A80036;stroke-width:1.0;"/><path d="M231.4438,200.8594 Q229.4594,200.8594 228.2875,199.3906 Q227.1313,197.9063 227.1313,194.8281 Q227.1313,192.2188 228.35,190.4688 Q229.5844,188.7188 231.7094,188.7188 Q232.2094,188.7188 232.7406,188.8594 Q233.1781,189.0469 233.4438,189.0469 Q233.6625,189.0469 233.7563,189 Q233.8656,188.9531 234.3188,188.3594 L235.0844,192.0938 L234.1938,192.3594 Q233.7406,190.9063 233.1313,190.3125 Q232.5375,189.7031 231.5844,189.7031 Q230.3656,189.7031 229.6469,191.1406 Q228.9281,192.5625 228.9281,194.75 Q228.9281,197.1563 229.5375,198.4531 Q230.1625,199.7344 231.5219,199.7344 Q232.475,199.7344 233.1625,199.0469 Q233.85,198.3438 234.1781,196.8438 L235.0844,197.25 Q234.6781,198.9531 233.7094,199.9063 Q232.7563,200.8594 231.4438,200.8594 Z " fill="#000000"/><text fill="#000000" font-family="sans-serif" font-size="12" lengthAdjust="spacing" textLength="83" x="249.9" y="200.5576">TemplatesImpl</text><line style="stroke:#A80036;stroke-width:1.5;" x1="201" x2="352" y1="211" y2="211"/><rect fill="none" height="6" style="stroke:#C82930;stroke-width:1.0;" width="6" x="208" y="219"/><text fill="#000000" font-family="sans-serif" font-size="11" lengthAdjust="spacing" textLength="93" x="220" y="227.606">byte[][] _bytecodes</text><rect fill="none" height="6" style="stroke:#C82930;stroke-width:1.0;" width="6" x="208" y="234.0229"/><text fill="#000000" font-family="sans-serif" font-size="11" lengthAdjust="spacing" textLength="109" x="220" y="242.6289">String _name = "Pwnr"</text><rect fill="none" height="6" style="stroke:#C82930;stroke-width:1.0;" width="6" x="208" y="249.0459"/><text fill="#000000" font-family="sans-serif" font-size="11" lengthAdjust="spacing" textLength="127" x="220" y="257.6519">&lt;TransformerFactoryImpl&gt;</text><line style="stroke:#A80036;stroke-width:1.5;" x1="201" x2="352" y1="264.0688" y2="264.0688"/><!--MD5=[3f725b52678a36935d6a057c3e976b0c]
class StubTransletPayload--><rect codeLine="6" fill="#FEFECE" filter="url(#f12pdramlvi5f)" height="63.0229" id="StubTransletPayload" style="stroke:#A80036;stroke-width:1.5;" width="146" x="493.5" y="194"/><ellipse cx="508.5" cy="210" fill="#ADD1B2" rx="11" ry="11" style="stroke:#A80036;stroke-width:1.0;"/><path d="M507.8438,215.8594 Q505.8594,215.8594 504.6875,214.3906 Q503.5313,212.9063 503.5313,209.8281 Q503.5313,207.2188 504.75,205.4688 Q505.9844,203.7188 508.1094,203.7188 Q508.6094,203.7188 509.1406,203.8594 Q509.5781,204.0469 509.8438,204.0469 Q510.0625,204.0469 510.1563,204 Q510.2656,203.9531 510.7188,203.3594 L511.4844,207.0938 L510.5938,207.3594 Q510.1406,205.9063 509.5313,205.3125 Q508.9375,204.7031 507.9844,204.7031 Q506.7656,204.7031 506.0469,206.1406 Q505.3281,207.5625 505.3281,209.75 Q505.3281,212.1563 505.9375,213.4531 Q506.5625,214.7344 507.9219,214.7344 Q508.875,214.7344 509.5625,214.0469 Q510.25,213.3438 510.5781,211.8438 L511.4844,212.25 Q511.0781,213.9531 510.1094,214.9063 Q509.1563,215.8594 507.8438,215.8594 Z " fill="#000000"/><text fill="#000000" font-family="sans-serif" font-size="12" lengthAdjust="spacing" textLength="114" x="522.5" y="215.5576">StubTransletPayload</text><line style="stroke:#A80036;stroke-width:1.5;" x1="494.5" x2="638.5" y1="226" y2="226"/><text fill="#000000" font-family="sans-serif" font-size="11" lengthAdjust="spacing" textLength="83" x="499.5" y="242.606">static {command}</text><line style="stroke:#A80036;stroke-width:1.5;" x1="494.5" x2="638.5" y1="249.0229" y2="249.0229"/><!--MD5=[42f68590bdcd95487ffa5226c405ff54]
class AbstractTranslet--><rect codeLine="9" fill="#FEFECE" filter="url(#f12pdramlvi5f)" height="48" id="AbstractTranslet" style="stroke:#A80036;stroke-width:1.5;" width="121" x="525" y="29.5"/><ellipse cx="540" cy="45.5" fill="#A9DCDF" rx="11" ry="11" style="stroke:#A80036;stroke-width:1.0;"/><path d="M540.4219,45.9844 L537.8594,45.9844 L537.3281,48.2813 Q537.2656,48.6094 537.2656,48.7656 Q537.2656,48.9844 537.3125,49.1406 Q537.375,49.2969 537.6563,49.2969 L538.125,49.2969 L538.125,50.2344 L535.1406,50.2344 L535.1406,49.2969 L535.5938,49.2969 Q535.7656,49.2969 535.8906,49.2031 Q536.0156,49.0938 536.0625,48.7969 L538.7031,38.4688 L540.1094,38 L542.6875,48.7656 Q542.7969,49.0781 542.9219,49.1875 Q543.0625,49.2969 543.2344,49.2969 L543.7031,49.2969 L543.7031,50.2344 L540.3125,50.2344 L540.3125,49.2969 L540.8438,49.2969 Q541.0625,49.2969 541.0781,49.25 Q541.1094,49.1875 541.1094,49.1094 Q541.1094,48.8906 541.0625,48.7031 L540.4219,45.9844 Z M535.8594,49.8281 L535.8594,49.8281 Z M536.5313,49.8281 L536.5313,49.8281 Z M541.25,49.8281 L541.25,49.8281 Z M542.375,49.8281 L542.375,49.8281 Z M539.1875,39.8906 L539.25,39.8906 L538.1406,45.0469 L540.2344,45.0469 L539.1875,39.8906 Z " fill="#000000"/><text fill="#000000" font-family="sans-serif" font-size="12" font-style="italic" lengthAdjust="spacing" textLength="89" x="554" y="51.0576">AbstractTranslet</text><line style="stroke:#A80036;stroke-width:1.5;" x1="526" x2="645" y1="61.5" y2="61.5"/><line style="stroke:#A80036;stroke-width:1.5;" x1="526" x2="645" y1="69.5" y2="69.5"/><!--MD5=[ecce48b6c46b384f557036a3a47dc8e4]
class getters--><rect codeLine="12" fill="#FEFECE" filter="url(#f12pdramlvi5f)" height="48" id="getters" style="stroke:#A80036;stroke-width:1.5;" width="78" x="411.5" y="29.5"/><ellipse cx="426.5" cy="45.5" fill="#ADD1B2" rx="11" ry="11" style="stroke:#A80036;stroke-width:1.0;"/><path d="M425.8438,51.3594 Q423.8594,51.3594 422.6875,49.8906 Q421.5313,48.4063 421.5313,45.3281 Q421.5313,42.7188 422.75,40.9688 Q423.9844,39.2188 426.1094,39.2188 Q426.6094,39.2188 427.1406,39.3594 Q427.5781,39.5469 427.8438,39.5469 Q428.0625,39.5469 428.1563,39.5 Q428.2656,39.4531 428.7188,38.8594 L429.4844,42.5938 L428.5938,42.8594 Q428.1406,41.4063 427.5313,40.8125 Q426.9375,40.2031 425.9844,40.2031 Q424.7656,40.2031 424.0469,41.6406 Q423.3281,43.0625 423.3281,45.25 Q423.3281,47.6563 423.9375,48.9531 Q424.5625,50.2344 425.9219,50.2344 Q426.875,50.2344 427.5625,49.5469 Q428.25,48.8438 428.5781,47.3438 L429.4844,47.75 Q429.0781,49.4531 428.1094,50.4063 Q427.1563,51.3594 425.8438,51.3594 Z " fill="#000000"/><text fill="#000000" font-family="sans-serif" font-size="12" lengthAdjust="spacing" textLength="46" x="440.5" y="51.0576">Getter[1]</text><line style="stroke:#A80036;stroke-width:1.5;" x1="412.5" x2="488.5" y1="61.5" y2="61.5"/><line style="stroke:#A80036;stroke-width:1.5;" x1="412.5" x2="488.5" y1="69.5" y2="69.5"/><!--MD5=[d82b0bc04c16fa42f77b93b986eea3e0]
class basic--><rect codeLine="13" fill="#FEFECE" filter="url(#f12pdramlvi5f)" height="93.0688" id="basic" style="stroke:#A80036;stroke-width:1.5;" width="353" x="7" y="7"/><ellipse cx="80.25" cy="23" fill="#ADD1B2" rx="11" ry="11" style="stroke:#A80036;stroke-width:1.0;"/><path d="M79.5938,28.8594 Q77.6094,28.8594 76.4375,27.3906 Q75.2813,25.9063 75.2813,22.8281 Q75.2813,20.2188 76.5,18.4688 Q77.7344,16.7188 79.8594,16.7188 Q80.3594,16.7188 80.8906,16.8594 Q81.3281,17.0469 81.5938,17.0469 Q81.8125,17.0469 81.9063,17 Q82.0156,16.9531 82.4688,16.3594 L83.2344,20.0938 L82.3438,20.3594 Q81.8906,18.9063 81.2813,18.3125 Q80.6875,17.7031 79.7344,17.7031 Q78.5156,17.7031 77.7969,19.1406 Q77.0781,20.5625 77.0781,22.75 Q77.0781,25.1563 77.6875,26.4531 Q78.3125,27.7344 79.6719,27.7344 Q80.625,27.7344 81.3125,27.0469 Q82,26.3438 82.3281,24.8438 L83.2344,25.25 Q82.8281,26.9531 81.8594,27.9063 Q80.9063,28.8594 79.5938,28.8594 Z " fill="#000000"/><text fill="#000000" font-family="sans-serif" font-size="12" lengthAdjust="spacing" textLength="198" x="100.75" y="28.5576">BasicPropertyAccessor$BasicGetter</text><line style="stroke:#A80036;stroke-width:1.5;" x1="8" x2="359" y1="39" y2="39"/><rect fill="none" height="6" style="stroke:#C82930;stroke-width:1.0;" width="6" x="15" y="47"/><text fill="#000000" font-family="sans-serif" font-size="11" lengthAdjust="spacing" textLength="56" x="27" y="55.606">Class clazz</text><rect fill="none" height="6" style="stroke:#C82930;stroke-width:1.0;" width="6" x="15" y="62.0229"/><text fill="#000000" font-family="sans-serif" font-size="11" lengthAdjust="spacing" textLength="221" x="27" y="70.6289">final String propertyName = "outputProperties"</text><line style="stroke:#A80036;stroke-width:1.5;" x1="8" x2="359" y1="77.0459" y2="77.0459"/><rect fill="#F24D5C" height="6" style="stroke:#C82930;stroke-width:1.0;" width="6" x="15" y="85.0459"/><text fill="#000000" font-family="sans-serif" font-size="11" lengthAdjust="spacing" textLength="327" x="27" y="93.6519">final transient Method method = TemplatesImpl.getOutputProperties()</text><!--MD5=[98fbd023be9e15633d3cc78e61a4761c]
reverse link TemplatesImpl to StubTransletPayload--><path codeLine="10" d="M358.21,225.5 C400.75,225.5 452.32,225.5 493.5,225.5 " fill="none" id="TemplatesImpl-backto-StubTransletPayload" style="stroke:#A80036;stroke-width:1.0;"/><rect fill="#FFFFFF" height="10" style="stroke:#A80036;stroke-width:1.5;" width="10" x="348.07" y="220.5"/><text fill="#000000" font-family="sans-serif" font-size="13" lengthAdjust="spacing" textLength="67" x="389.75" y="219.3979">_bytecodes</text><!--MD5=[acaddf297e04fdbd531a33bed7cdabaa]
reverse link AbstractTranslet to StubTransletPayload--><path codeLine="11" d="M582.32,82.91 C578.9,113.57 573.46,162.21 569.94,193.74 " fill="none" id="AbstractTranslet-backto-StubTransletPayload" style="stroke:#A80036;stroke-width:1.0;stroke-dasharray:7.0,7.0;"/><polygon fill="#A80036" points="582.9,77.78,577.9467,86.2926,582.3572,82.7505,585.8994,87.161,582.9,77.78" style="stroke:#A80036;stroke-width:1.0;"/><text fill="#000000" font-family="sans-serif" font-size="13" lengthAdjust="spacing" textLength="46" x="577.5" y="145.8979">extends</text><!--MD5=[10e6bfd27eabf2c724eb861b3dd79c9d]
link getters to basic--><path codeLine="18" d="M411.43,53.5 C398.19,53.5 382.41,53.5 365.42,53.5 " fill="none" id="getters-to-basic" style="stroke:#A80036;stroke-width:1.0;"/><polygon fill="#A80036" points="360.11,53.5,369.11,57.5,365.11,53.5,369.11,49.5,360.11,53.5" style="stroke:#A80036;stroke-width:1.0;"/><text fill="#000000" font-family="sans-serif" font-size="13" lengthAdjust="spacing" textLength="15" x="378.25" y="47.3979">[0]</text><!--MD5=[b4f35c83d9dac116fb2f2368420e7c92]
link basic to TemplatesImpl--><path codeLine="19" d="M208.42,100.06 C220.93,122.92 236.12,150.68 248.97,174.18 " fill="none" id="basic-to-TemplatesImpl" style="stroke:#A80036;stroke-width:1.0;"/><polygon fill="#A80036" points="251.51,178.82,250.6985,169.0046,249.1097,174.4338,243.6806,172.8451,251.51,178.82" style="stroke:#A80036;stroke-width:1.0;"/><text fill="#000000" font-family="sans-serif" font-size="13" lengthAdjust="spacing" textLength="31" x="234.5" y="145.8979">clazz</text><!--MD5=[d788fbb6ee858e8ca7a036ae9031d2b6]
@startuml
class TemplatesImpl {
    -byte[][] _bytecodes
    -String _name = "Pwnr"
    -<TransformerFactoryImpl>
}
class StubTransletPayload {
    static {command}
}
abstract class AbstractTranslet
TemplatesImpl #-right- StubTransletPayload : _bytecodes
StubTransletPayload .up.> AbstractTranslet : extends
class getters as "Getter[1]"
class basic as "BasicPropertyAccessor$BasicGetter" {
    -Class clazz
    -final transient Method method = TemplatesImpl.getOutputProperties()
    -final String propertyName = "outputProperties"
}
getters -right-> basic : "[0]"
basic - -> TemplatesImpl : "clazz"
@enduml

PlantUML version 1.2022.0(Wed Jan 12 00:16:42 CST 2022)
(GPL source distribution)
Java Runtime: Java(TM) SE Runtime Environment
JVM: Java HotSpot(TM) 64-Bit Server VM
Default Encoding: GBK
Language: en
Country: US
--></g></svg>