<?xml version="1.0" encoding="UTF-8" standalone="no"?><svg xmlns="http://www.w3.org/2000/svg" xmlns:xlink="http://www.w3.org/1999/xlink" contentScriptType="application/ecmascript" contentStyleType="text/css" height="241px" preserveAspectRatio="none" style="width:423px;height:241px;background:#FFFFFF;" version="1.1" viewBox="0 0 423 241" width="423px" zoomAndPan="magnify"><defs><filter height="300%" id="f1lkdvqvpshehj" width="300%" x="-1" y="-1"><feGaussianBlur result="blurOut" stdDeviation="2.0"/><feColorMatrix in="blurOut" result="blurOut2" type="matrix" values="0 0 0 0 0 0 0 0 0 0 0 0 0 0 0 0 0 0 .4 0"/><feOffset dx="4.0" dy="4.0" in="blurOut2" result="blurOut3"/><feBlend in="SourceGraphic" in2="blurOut3" mode="normal"/></filter></defs><g><!--MD5=[15b719c9c6da809e4f563fab242bdaca]
class TemplatesImpl--><rect codeLine="1" fill="#FEFECE" filter="url(#f1lkdvqvpshehj)" height="93.0688" id="TemplatesImpl" style="stroke:#A80036;stroke-width:1.5;" width="153" x="7" y="134"/><ellipse cx="39.1" cy="150" fill="#ADD1B2" rx="11" ry="11" style="stroke:#A80036;stroke-width:1.0;"/><path d="M38.4438,155.8594 Q36.4594,155.8594 35.2875,154.3906 Q34.1313,152.9063 34.1313,149.8281 Q34.1313,147.2188 35.35,145.4688 Q36.5844,143.7188 38.7094,143.7188 Q39.2094,143.7188 39.7406,143.8594 Q40.1781,144.0469 40.4438,144.0469 Q40.6625,144.0469 40.7563,144 Q40.8656,143.9531 41.3188,143.3594 L42.0844,147.0938 L41.1938,147.3594 Q40.7406,145.9063 40.1313,145.3125 Q39.5375,144.7031 38.5844,144.7031 Q37.3656,144.7031 36.6469,146.1406 Q35.9281,147.5625 35.9281,149.75 Q35.9281,152.1563 36.5375,153.4531 Q37.1625,154.7344 38.5219,154.7344 Q39.475,154.7344 40.1625,154.0469 Q40.85,153.3438 41.1781,151.8438 L42.0844,152.25 Q41.6781,153.9531 40.7094,154.9063 Q39.7563,155.8594 38.4438,155.8594 Z " fill="#000000"/><text fill="#000000" font-family="sans-serif" font-size="12" lengthAdjust="spacing" textLength="83" x="56.9" y="155.5576">TemplatesImpl</text><line style="stroke:#A80036;stroke-width:1.5;" x1="8" x2="159" y1="166" y2="166"/><rect fill="none" height="6" style="stroke:#C82930;stroke-width:1.0;" width="6" x="15" y="174"/><text fill="#000000" font-family="sans-serif" font-size="11" lengthAdjust="spacing" textLength="93" x="27" y="182.606">byte[][] _bytecodes</text><rect fill="none" height="6" style="stroke:#C82930;stroke-width:1.0;" width="6" x="15" y="189.0229"/><text fill="#000000" font-family="sans-serif" font-size="11" lengthAdjust="spacing" textLength="109" x="27" y="197.6289">String _name = "Pwnr"</text><rect fill="none" height="6" style="stroke:#C82930;stroke-width:1.0;" width="6" x="15" y="204.0459"/><text fill="#000000" font-family="sans-serif" font-size="11" lengthAdjust="spacing" textLength="127" x="27" y="212.6519">&lt;TransformerFactoryImpl&gt;</text><line style="stroke:#A80036;stroke-width:1.5;" x1="8" x2="159" y1="219.0688" y2="219.0688"/><!--MD5=[3f725b52678a36935d6a057c3e976b0c]
class StubTransletPayload--><rect codeLine="6" fill="#FEFECE" filter="url(#f1lkdvqvpshehj)" height="63.0229" id="StubTransletPayload" style="stroke:#A80036;stroke-width:1.5;" width="146" x="263.5" y="149"/><ellipse cx="278.5" cy="165" fill="#ADD1B2" rx="11" ry="11" style="stroke:#A80036;stroke-width:1.0;"/><path d="M277.8438,170.8594 Q275.8594,170.8594 274.6875,169.3906 Q273.5313,167.9063 273.5313,164.8281 Q273.5313,162.2188 274.75,160.4688 Q275.9844,158.7188 278.1094,158.7188 Q278.6094,158.7188 279.1406,158.8594 Q279.5781,159.0469 279.8438,159.0469 Q280.0625,159.0469 280.1563,159 Q280.2656,158.9531 280.7188,158.3594 L281.4844,162.0938 L280.5938,162.3594 Q280.1406,160.9063 279.5313,160.3125 Q278.9375,159.7031 277.9844,159.7031 Q276.7656,159.7031 276.0469,161.1406 Q275.3281,162.5625 275.3281,164.75 Q275.3281,167.1563 275.9375,168.4531 Q276.5625,169.7344 277.9219,169.7344 Q278.875,169.7344 279.5625,169.0469 Q280.25,168.3438 280.5781,166.8438 L281.4844,167.25 Q281.0781,168.9531 280.1094,169.9063 Q279.1563,170.8594 277.8438,170.8594 Z " fill="#000000"/><text fill="#000000" font-family="sans-serif" font-size="12" lengthAdjust="spacing" textLength="114" x="292.5" y="170.5576">StubTransletPayload</text><line style="stroke:#A80036;stroke-width:1.5;" x1="264.5" x2="408.5" y1="181" y2="181"/><text fill="#000000" font-family="sans-serif" font-size="11" lengthAdjust="spacing" textLength="83" x="269.5" y="197.606">static {command}</text><line style="stroke:#A80036;stroke-width:1.5;" x1="264.5" x2="408.5" y1="204.0229" y2="204.0229"/><!--MD5=[42f68590bdcd95487ffa5226c405ff54]
class AbstractTranslet--><rect codeLine="9" fill="#FEFECE" filter="url(#f1lkdvqvpshehj)" height="48" id="AbstractTranslet" style="stroke:#A80036;stroke-width:1.5;" width="121" x="276" y="7"/><ellipse cx="291" cy="23" fill="#A9DCDF" rx="11" ry="11" style="stroke:#A80036;stroke-width:1.0;"/><path d="M291.4219,23.4844 L288.8594,23.4844 L288.3281,25.7813 Q288.2656,26.1094 288.2656,26.2656 Q288.2656,26.4844 288.3125,26.6406 Q288.375,26.7969 288.6563,26.7969 L289.125,26.7969 L289.125,27.7344 L286.1406,27.7344 L286.1406,26.7969 L286.5938,26.7969 Q286.7656,26.7969 286.8906,26.7031 Q287.0156,26.5938 287.0625,26.2969 L289.7031,15.9688 L291.1094,15.5 L293.6875,26.2656 Q293.7969,26.5781 293.9219,26.6875 Q294.0625,26.7969 294.2344,26.7969 L294.7031,26.7969 L294.7031,27.7344 L291.3125,27.7344 L291.3125,26.7969 L291.8438,26.7969 Q292.0625,26.7969 292.0781,26.75 Q292.1094,26.6875 292.1094,26.6094 Q292.1094,26.3906 292.0625,26.2031 L291.4219,23.4844 Z M286.8594,27.3281 L286.8594,27.3281 Z M287.5313,27.3281 L287.5313,27.3281 Z M292.25,27.3281 L292.25,27.3281 Z M293.375,27.3281 L293.375,27.3281 Z M290.1875,17.3906 L290.25,17.3906 L289.1406,22.5469 L291.2344,22.5469 L290.1875,17.3906 Z " fill="#000000"/><text fill="#000000" font-family="sans-serif" font-size="12" font-style="italic" lengthAdjust="spacing" textLength="89" x="305" y="28.5576">AbstractTranslet</text><line style="stroke:#A80036;stroke-width:1.5;" x1="277" x2="396" y1="39" y2="39"/><line style="stroke:#A80036;stroke-width:1.5;" x1="277" x2="396" y1="47" y2="47"/><!--MD5=[98fbd023be9e15633d3cc78e61a4761c]
reverse link TemplatesImpl to StubTransletPayload--><path codeLine="10" d="M165.12,180.5 C196.67,180.5 232.49,180.5 263.2,180.5 " fill="none" id="TemplatesImpl-backto-StubTransletPayload" style="stroke:#A80036;stroke-width:1.0;"/><rect fill="#FFFFFF" height="10" style="stroke:#A80036;stroke-width:1.5;" width="10" x="155.09" y="175.5"/><text fill="#000000" font-family="sans-serif" font-size="13" lengthAdjust="spacing" textLength="67" x="178.25" y="174.3979">_bytecodes</text><!--MD5=[acaddf297e04fdbd531a33bed7cdabaa]
reverse link AbstractTranslet to StubTransletPayload--><path codeLine="11" d="M336.5,60.28 C336.5,85.67 336.5,122.87 336.5,148.94 " fill="none" id="AbstractTranslet-backto-StubTransletPayload" style="stroke:#A80036;stroke-width:1.0;stroke-dasharray:7.0,7.0;"/><polygon fill="#A80036" points="336.5,55.05,332.5,64.05,336.5,60.05,340.5,64.05,336.5,55.05" style="stroke:#A80036;stroke-width:1.0;"/><text fill="#000000" font-family="sans-serif" font-size="13" lengthAdjust="spacing" textLength="46" x="337.5" y="100.8979">extends</text><!--MD5=[3de44e4c72b3d9e4b0458fac9cd307c3]
@startuml
class TemplatesImpl {
    -byte[][] _bytecodes
    -String _name = "Pwnr"
    -<TransformerFactoryImpl>
}
class StubTransletPayload {
    static {command}
}
abstract class AbstractTranslet
TemplatesImpl #-right- StubTransletPayload : _bytecodes
StubTransletPayload .up.> AbstractTranslet : extends
@enduml

PlantUML version 1.2022.0(Wed Jan 12 00:16:42 CST 2022)
(GPL source distribution)
Java Runtime: Java(TM) SE Runtime Environment
JVM: Java HotSpot(TM) 64-Bit Server VM
Default Encoding: GBK
Language: en
Country: US
--></g></svg>